<svg id="ALD_automotive" data-name="ALD automotive" xmlns="http://www.w3.org/2000/svg" width="332.997" height="90.658" viewBox="0 0 332.997 90.658">
  <g id="g2838">
    <path id="path26" d="M-67.524,261.4h14.491l-7.222-15.556Zm-2.905,6.242-4.311,9.313h-7.522l18.3-38.378h7.32l18.347,38.378h-7.522l-4.306-9.313Z" transform="translate(199.499 -231.629)"/>
    <path id="path30" d="M-79.289,276.957V238.579h6.969v32.029H-47.2v6.348Z" transform="translate(245.107 -231.628)"/>
    <g id="g40" transform="translate(202.413 6.947)">
      <path id="path42" d="M18.5,30.021c8.173,0,12.335-5.478,12.335-12.791,0-7.166-4.162-12.691-12.335-12.691H5.769V30.021Zm0-31.936c11.834,0,19.552,7.625,19.552,19.145,0,10.643-8.22,19.239-18.491,19.239H-1.206V-1.915Z" transform="translate(1.206 1.915)"/>
    </g>
    <g id="g44" transform="translate(117.615 60.146)">
      <path id="path46" d="M15.769,17.129l-2.323-6.713C12.61,8,12.218,6.65,11.912,5.668H11.82c-.305,1.03-.744,2.371-1.579,4.748L7.831,17.129Zm-5.7-18.221h3.418L24.939,28.549H20.022l-2.807-7.566H6.471L3.7,28.549H-1.028Z" transform="translate(1.028 1.093)"/>
    </g>
    <g id="g48" transform="translate(146.649 68.609)">
      <path id="path50" d="M.579,16.5a11.435,11.435,0,0,1-.617-4.254v-13.3H4.527V11.615a7.694,7.694,0,0,0,.392,2.871,3.078,3.078,0,0,0,3.2,2.053A6.429,6.429,0,0,0,12.9,14.3V-1.052h4.565V14.257a25.846,25.846,0,0,0,.392,5.866H13.917l-.749-2.283a9.67,9.67,0,0,1-6.577,2.736A6.129,6.129,0,0,1,.579,16.5" transform="translate(0.038 1.052)"/>
    </g>
    <g id="g52" transform="translate(167.882 62.295)">
      <path id="path54" d="M3.42,21.127V8.637H-.223V4.965H3.42V.082l4.559-1.43V4.965H14.21L13.069,8.637H7.979V20.1c0,1.924.7,2.689,2.064,2.689a5.776,5.776,0,0,0,3.251-1.077l1.447,3.224a10.64,10.64,0,0,1-5.793,1.659c-3.464,0-5.528-2.018-5.528-5.466" transform="translate(0.223 1.348)"/>
    </g>
    <g id="g56" transform="translate(185.035 68.069)">
      <path id="path58" d="M14.578,10.4c0-4.213-1.931-7.254-5.4-7.254S3.742,6.185,3.742,10.4c0,4.254,1.977,7.3,5.441,7.3s5.4-3.048,5.4-7.3M-.95,10.4C-.95,4.085,3.084-.663,9.183-.663,15.235-.663,19.27,4.085,19.27,10.4S15.235,21.506,9.183,21.506-.95,16.711-.95,10.4" transform="translate(0.95 0.663)"/>
    </g>
    <g id="g60" transform="translate(209.467 68.072)">
      <path id="path62" d="M0,.5H3.816L4.3,3.01A11.331,11.331,0,0,1,11.361-.032a5.64,5.64,0,0,1,5.436,3.4c2.507-2.195,5.136-3.4,7.551-3.4,3.551,0,6.623,2.106,6.623,7.607V21.684H26.405V8.876c0-2.683-.525-4.83-3.286-4.83a8.989,8.989,0,0,0-5.4,2.459,7.36,7.36,0,0,1,.04.988V21.684H13.205V8.923c0-2.689-.53-4.877-3.251-4.877A8.79,8.79,0,0,0,4.559,6.5V21.684H0Z" transform="translate(0 0.032)"/>
    </g>
    <g id="g64" transform="translate(244.562 68.069)">
      <path id="path66" d="M14.578,10.4c0-4.213-1.931-7.254-5.4-7.254S3.742,6.185,3.742,10.4c0,4.254,1.977,7.3,5.441,7.3s5.4-3.048,5.4-7.3M-.95,10.4C-.95,4.085,3.084-.663,9.183-.663,15.235-.663,19.27,4.085,19.27,10.4S15.235,21.506,9.183,21.506-.95,16.711-.95,10.4" transform="translate(0.95 0.663)"/>
    </g>
    <g id="g68" transform="translate(267.194 62.295)">
      <path id="path70" d="M3.42,21.127V8.637H-.223V4.965H3.42V.082l4.565-1.43V4.965H14.21L13.069,8.637H7.985V20.1c0,1.924.7,2.689,2.058,2.689a5.776,5.776,0,0,0,3.251-1.077l1.447,3.224a10.64,10.64,0,0,1-5.793,1.659c-3.464,0-5.528-2.018-5.528-5.466" transform="translate(0.223 1.348)"/>
    </g>
    <path id="path72" d="M-71.421,251.324h4.559V272.5h-4.559Zm-.571-6.76a2.784,2.784,0,0,1,2.847-2.865,2.755,2.755,0,0,1,2.853,2.865,2.809,2.809,0,0,1-2.853,2.865,2.784,2.784,0,0,1-2.847-2.865" transform="translate(357.04 -182.717)"/>
    <g id="g74" transform="translate(293.34 68.607)">
      <path id="path76" d="M0,0H4.652l5.441,15.268h.086L15.488,0H20.14L11.845,21.316H8.335Z"/>
    </g>
    <g id="g78" transform="translate(315.007 68.07)">
      <path id="path80" d="M12.522,8.418c-.086-2.689-1.36-5.33-4.3-5.33-2.761,0-4.381,2.465-4.427,5.33ZM-.816,10.524c0-6.4,3.47-11.061,9.084-11.061,5.66,0,8.905,4.3,8.905,11.149V11.73H3.841c.081,3.63,2.409,6.184,6.179,6.184a10.187,10.187,0,0,0,5.222-1.436l1.36,3.177a12.981,12.981,0,0,1-7.067,1.977C2.3,21.632-.816,16.39-.816,10.524" transform="translate(0.816 0.537)"/>
    </g>
    <path id="path82" d="M-89.437,238.162H-.619v45.326H-89.437Z" transform="translate(89.437 -238.162)" fill="#e4032e" fill-rule="evenodd"/>
    <path id="path84" d="M-89.437,240.88H-.619v45.332H-89.437Z" transform="translate(89.437 -195.554)" fill-rule="evenodd"/>
    <path id="path86" d="M-88.488,240.715H-30.7v5.513H-88.488Z" transform="translate(104.005 -198.142)" fill="#fff" fill-rule="evenodd"/>
  </g>
</svg>
