<svg id="ANWB" xmlns="http://www.w3.org/2000/svg" xmlns:xlink="http://www.w3.org/1999/xlink" width="115.689" height="60.75" viewBox="0 0 115.689 60.75">
  <defs>
    <linearGradient id="linear-gradient" x1="-0.608" y1="-0.059" x2="-0.603" y2="-0.059" gradientUnits="objectBoundingBox">
      <stop offset="0" stop-color="#fd0"/>
      <stop offset="1" stop-color="#f8961d"/>
    </linearGradient>
    <radialGradient id="radial-gradient" cx="1.79" cy="0.724" r="1.246" gradientTransform="translate(0.104) scale(1.441 1)" gradientUnits="objectBoundingBox">
      <stop offset="0" stop-color="#00aeef"/>
      <stop offset="0.5" stop-color="#009ee2"/>
      <stop offset="1" stop-color="#0066b3"/>
    </radialGradient>
    <radialGradient id="radial-gradient-2" cx="0.931" cy="-0.09" r="2.129" gradientTransform="translate(-0.081) scale(0.449 1)" xlink:href="#radial-gradient"/>
    <radialGradient id="radial-gradient-3" cx="0.787" cy="0.507" r="0.713" gradientTransform="translate(0) scale(0.976 1)" xlink:href="#radial-gradient"/>
    <radialGradient id="radial-gradient-4" cx="1.154" cy="-0.184" r="2.939" gradientTransform="translate(-0.263) scale(0.838 1)" gradientUnits="objectBoundingBox">
      <stop offset="0" stop-color="#0067b4"/>
      <stop offset="1" stop-color="#11489f"/>
    </radialGradient>
    <radialGradient id="radial-gradient-5" cx="3.513" cy="-0.303" r="7.151" gradientTransform="translate(-0.637) scale(0.745 1)" xlink:href="#radial-gradient-4"/>
    <radialGradient id="radial-gradient-6" cx="19.207" cy="0.868" r="4.324" gradientTransform="translate(67.617) scale(6.469 1)" xlink:href="#radial-gradient-4"/>
  </defs>
  <path id="Path_379" data-name="Path 379" d="M510.073,27.879a13.469,13.469,0,0,0-8-2.637l1.483-8.016-6.094,8.213a28.277,28.277,0,0,0-10.493,3.82l-4.445-6.342a39.665,39.665,0,0,1,6.116-3.41c13.56-5.774,23.9-4.369,32.873,1.171Z" transform="translate(-458.807 -15.079)" fill-rule="evenodd" fill="url(#linear-gradient)"/>
  <path id="Path_380" data-name="Path 380" d="M111.773,191.148a24.142,24.142,0,0,1,1.928-16.137l5.579-2-3.555-1.7a45.759,45.759,0,0,1,13.668-13.55l4.445,6.342a21.671,21.671,0,0,0-8.589,9.478,12.17,12.17,0,0,0-.8,9.62Zm13.39-8.394-.033-.063Z" transform="translate(-105.678 -149.924)" fill-rule="evenodd" fill="url(#radial-gradient)"/>
  <path id="Path_381" data-name="Path 381" d="M149.349,694.124l-.4-3.668-4.1,3.491c-7.221-.907-12.654-4.81-14.538-10.792l13.657-8.567c.077.107.155.213.236.318a10.847,10.847,0,0,0,6.583,3.806,10.847,10.847,0,0,1-6.583-3.806c-.081-.105-.159-.211-.236-.318l-.828.519a9.383,9.383,0,0,0,.557.907,11.146,11.146,0,0,0,6.869,4.391L149.4,689.3l2.062-2.93-.558,3.211,6.784-9.092a29.6,29.6,0,0,0,9.759-3.539l5.479,7.816C164.755,690.943,156.463,693.835,149.349,694.124Z" transform="translate(-123.908 -640.822)" fill-rule="evenodd" fill="url(#radial-gradient-2)"/>
  <path id="Path_382" data-name="Path 382" d="M58.533,86.876l-.968,0c-23.317,24.327-48.8,18.438-52.976,3.6C.039,74.322,15.961,56.363,32.472,50.308,17.439,53.422-5.952,75.014,1.389,95.945c5.059,14.425,29.987,18.632,51.524,1.41L51.29,95.04C55.008,91.852,57.518,88.861,58.533,86.876Z" transform="translate(0.002 -47.86)" fill-rule="evenodd" fill="url(#radial-gradient-3)"/>
  <path id="Path_383" data-name="Path 383" d="M560.734,702.217h0l5.313-7.549Zm15.984-9.42-1.067-1.522,1.067,1.522" transform="translate(-533.175 -656.672)" fill="#5e6eb4"/>
  <path id="Path_384" data-name="Path 384" d="M549.375,705.428l.558-3.211,5.314-7.55a27.316,27.316,0,0,0,9.6-3.392l1.067,1.522a29.591,29.591,0,0,1-9.759,3.539Z" transform="translate(-522.375 -656.672)" fill-rule="evenodd" fill="url(#radial-gradient-4)"/>
  <path id="Path_385" data-name="Path 385" d="M398.776,680.4a11.146,11.146,0,0,1-6.869-4.391,9.374,9.374,0,0,1-.557-.907l.828-.519c.077.107.155.213.236.318A10.847,10.847,0,0,0,399,678.712l-.221,1.693Z" transform="translate(-372.116 -640.822)" fill-rule="evenodd" fill="url(#radial-gradient-5)"/>
  <path id="Path_386" data-name="Path 386" d="M376.249,481.83h0l.713-.447Zm.68-.511c-1.373-2.643-1.26-5.892.119-9.109l.023-.047C375.671,475.4,375.55,478.663,376.929,481.32Z" transform="translate(-357.477 -448.552)" fill="#5e6eb4"/>
  <path id="Path_387" data-name="Path 387" d="M369.216,482.728a12.17,12.17,0,0,1,.8-9.62c-1.379,3.217-1.492,6.467-.119,9.109l.033.063Z" transform="translate(-350.445 -449.45)" fill-rule="evenodd" fill="url(#radial-gradient-6)"/>
  <path id="Path_388" data-name="Path 388" d="M1940.08,179.848c-1.1,1.621-2.629,2.829-4.252,2.858-1.433.026-2.781-.816-1.95-3.485.859-2.772,2.63-7.01,2.63-7.01,4.186-1.725,5.546.48,5.5,2.192A11.484,11.484,0,0,1,1940.08,179.848Zm6.714-7.45c-.767-2.952-3.046-4.146-6.254-4.038a18.206,18.206,0,0,0-2.7.34l2.832-7.55h-5.475l-9.18,24.421-.07.177h0l0,.008.006-.008,3.826,0,1.58-1.178a4.363,4.363,0,0,0,2.739,1.394c4.753.683,8.755-2.238,10.885-5.607C1946.483,177.978,1947.385,174.675,1946.794,172.4Z" transform="translate(-1831.288 -153.141)" fill="#00468e"/>
  <path id="Path_389" data-name="Path 389" d="M524.54,306.6s-1.737,4.79-3.014,7.56c-1.231,2.67-2.93,3.581-4.29,3.486-1.483-.1-2.364-1.16-2.331-2.858a9.8,9.8,0,0,1,2.229-5.446A7.961,7.961,0,0,1,524.54,306.6Zm-1.754-3.3a14.75,14.75,0,0,0-9.346,4.107,12.116,12.116,0,0,0-3.731,7.884c-.084,3.338,2.372,6.309,7.237,5.538a9.4,9.4,0,0,0,2.975-1.324l.761,1.178,3.828,0,6.04-16.078A14.515,14.515,0,0,0,522.787,303.3Z" transform="translate(-484.657 -288.084)" fill="#00468e"/>
  <path id="Path_390" data-name="Path 390" d="M1336.268,328.521l5.5-14.679h5.427l-5.164,13.769a4.278,4.278,0,0,0,5.675-2.49l4.217-11.28h5.456l-5.2,13.795c2.152.722,4.47.334,5.652-2.514l4.238-11.281h5.413l-4.318,11.4c-1.083,2.551-2.845,6.047-8.888,6.047a8.166,8.166,0,0,1-5.034-1.686,13.848,13.848,0,0,1-6.188,1.686C1340.97,331.288,1337.175,330.528,1336.268,328.521Z" transform="translate(-1270.594 -298.173)" fill="#00468e"/>
  <path id="Path_391" data-name="Path 391" d="M901.581,307.27,895.5,323.436h5.555l5.133-13.572a12.2,12.2,0,0,1,2.741-.339c1.8,0,2.569.707,2.448,1.631a2.529,2.529,0,0,1-.2.677l-4.366,11.6h5.561l4.3-11.389a5.967,5.967,0,0,0,.356-1.323c.321-2.492-1.441-4.618-6.759-4.624a35.254,35.254,0,0,0-4.117.227A28.98,28.98,0,0,0,901.581,307.27Z" transform="translate(-851.493 -290.819)" fill="#00468e"/>
  <path id="Path_392" data-name="Path 392" d="M881.149,53.812l-.865,4.632c.442,0,.861.035,1.3.077l1.275-7.767Z" transform="translate(-837.02 -48.283)" fill="#e7731e"/>
  <path id="Path_393" data-name="Path 393" d="M136.385,7.1c-7-6.178-18.582-7.273-30.262-3.147l.012,0C89.625,10.006,73.7,27.965,78.253,44.126c4.177,14.834,29.658,20.723,52.975-3.6h-2.517a45.02,45.02,0,0,1-6.037,4.91l.009.012c-8.175,6.18-16.467,9.071-23.581,9.362l-.4-3.668-4.1,3.49c-7.222-.906-12.654-4.809-14.539-10.793l13.654-8.569a7.892,7.892,0,0,1-.577-.935l-13.385,8.4a24.137,24.137,0,0,1,1.927-16.137l5.579-2-3.556-1.7A45.741,45.741,0,0,1,97.376,9.342a39.67,39.67,0,0,1,6.116-3.41q.636-.271,1.262-.52C117.7.25,127.677,1.736,136.365,7.1Z" transform="translate(-73.657 -1.5)" fill="#fff"/>
  <path id="Path_394" data-name="Path 394" d="M792.342,45.3l.2-1-6.1,8.212c.483-.065.88-.115,1.363-.151Z" transform="translate(-747.791 -42.149)" fill="#fff"/>
  <path id="Path_395" data-name="Path 395" d="M521.3,756.969c-.543-.075-.666-.1-1.164-.189l-1.384,10.586.576-.819Z" transform="translate(-493.255 -718.891)" fill="#fff"/>
</svg>
