<?xml version="1.0" encoding="UTF-8" standalone="no"?>
<!DOCTYPE svg PUBLIC "-//W3C//DTD SVG 1.1//EN" "http://www.w3.org/Graphics/SVG/1.1/DTD/svg11.dtd">
<svg width="100%" height="100%" viewBox="0 0 248 175" version="1.1" xmlns="http://www.w3.org/2000/svg" xmlns:xlink="http://www.w3.org/1999/xlink" xml:space="preserve" xmlns:serif="http://www.serif.com/" style="fill-rule:evenodd;clip-rule:evenodd;stroke-linejoin:round;stroke-miterlimit:2;">
    <g transform="matrix(1,0,0,1,-1068.22,-45.9981)">
        <g id="Logo" transform="matrix(-1.03883,-2.83201e-17,-2.39971e-17,-1.06489,2583.07,1040.09)">
            <rect x="1220.13" y="769.628" width="238.094" height="163.892" style="fill:none;"/>
            <g transform="matrix(-0.962624,2.56005e-17,2.16927e-17,-0.939067,2486.52,939.451)">
                <path d="M1176.76,152.029C1182.73,152.628 1194.78,155.871 1187.6,162.27C1179.69,169.332 1172.49,172.991 1148.16,159.133C1148.05,159.071 1143.03,160.719 1140.52,161.412C1143.56,167.682 1143.2,176.763 1126.21,176.648C1105.84,176.509 1106.33,169.633 1111.57,162.949C1101.08,161.407 1091.19,157.762 1083.32,152.771C1059.6,137.737 1088.65,94.444 1096.87,77.751C1098.27,74.901 1102.61,105.223 1104.56,103.837C1106.24,102.646 1098.62,83.628 1111.17,64.455C1112.95,61.741 1101.97,44.812 1107.41,39.371C1111.93,34.844 1127.01,21.407 1127.84,19.667C1139.15,-3.885 1148.22,19.891 1148.28,19.708C1150.55,12.9 1158.98,3.391 1163.96,21.065C1164.93,24.519 1198.59,51.66 1211.75,46.171C1223.24,41.383 1228.34,46.877 1230.18,50.447C1236.72,63.135 1217.18,78.767 1207.53,81.215C1187.92,86.184 1166.85,75.201 1152.65,61.005C1152.65,61.005 1182.58,95.137 1179.44,121.29L1179.41,121.29C1176.27,120.158 1172.35,119.271 1170.01,119.271C1160.89,119.271 1154.1,126.15 1154.1,135.659C1154.1,145.519 1160.89,151.96 1170.01,151.96C1171.05,151.96 1176.75,152.029 1176.76,152.029ZM1234.6,151.96C1243.72,151.96 1250.51,145.519 1250.51,135.659C1250.51,126.15 1243.72,119.271 1234.6,119.271C1225.49,119.271 1218.69,126.15 1218.69,135.659C1218.69,145.519 1225.49,151.96 1234.6,151.96ZM1214.23,145.519C1214.23,144.642 1213.44,143.941 1212.6,143.941C1212.17,143.941 1211.68,144.116 1211.33,144.642C1209.19,147.534 1205.29,149.112 1201.34,149.112C1192.8,149.112 1188.59,142.188 1188.59,135.703C1188.59,129.481 1192.84,121.856 1201.47,121.856C1204.76,121.856 1208,123.083 1210.06,125.668C1210.41,126.15 1210.89,126.326 1211.29,126.326C1212.08,126.326 1212.74,125.712 1212.74,124.88C1212.74,123.302 1208.4,119.358 1201.69,119.358C1191.18,119.358 1185.74,127.728 1185.74,135.878C1185.74,144.073 1191.26,151.916 1201.43,151.916C1209.14,151.916 1214.23,147.14 1214.23,145.519ZM1120.27,145.519C1120.27,144.642 1119.48,143.941 1118.65,143.941C1118.21,143.941 1117.73,144.116 1117.38,144.642C1115.23,147.534 1111.33,149.112 1107.39,149.112C1098.85,149.112 1094.64,142.188 1094.64,135.703C1094.64,129.481 1098.89,121.856 1107.52,121.856C1110.81,121.856 1114.05,123.083 1116.11,125.668C1116.46,126.15 1116.94,126.326 1117.34,126.326C1118.12,126.326 1118.78,125.712 1118.78,124.88C1118.78,123.302 1114.44,119.358 1107.74,119.358C1097.22,119.358 1091.79,127.728 1091.79,135.878C1091.79,144.073 1097.31,151.916 1107.48,151.916C1115.19,151.916 1120.27,147.14 1120.27,145.519ZM1285.04,135.572C1285.04,126.895 1279.95,120.191 1270.27,119.577C1269.61,119.534 1268.34,119.49 1267.03,119.49C1262.43,119.49 1258.18,119.49 1257.83,124.792C1257.69,127.202 1257.56,132.285 1257.56,137.149C1257.56,140.83 1257.65,144.379 1257.78,146.527C1258.09,151.215 1262.43,151.785 1267.16,151.785C1272.99,151.785 1285.04,151.04 1285.04,135.572ZM1138.81,135.528C1143.32,135.002 1146.13,131.233 1146.13,127.465C1146.13,123.74 1143.37,120.016 1136.97,119.577C1136.31,119.534 1135.35,119.49 1134.38,119.49C1131.01,119.49 1126.63,119.49 1126.5,124.266C1126.36,128.999 1126.41,141.925 1126.32,150.295C1126.32,151.171 1126.98,151.566 1127.68,151.566C1128.38,151.566 1129.12,151.128 1129.12,150.251C1129.12,148.63 1128.99,140.217 1128.99,136.842C1128.99,136.273 1129.17,136.01 1130.39,136.01C1131.53,136.01 1133.42,136.097 1134.03,136.097C1137.1,136.185 1140.78,143.503 1142.58,146.702C1144.94,150.996 1147.97,151.697 1148.93,151.697C1150.16,151.697 1150.73,150.996 1150.73,150.251C1150.73,149.55 1150.25,148.849 1149.37,148.761C1147.4,148.542 1146.13,147.228 1144.9,145.256C1143.19,142.451 1141.31,138.639 1138.9,136.404C1138.59,136.141 1138.41,135.922 1138.41,135.747C1138.41,135.615 1138.55,135.528 1138.81,135.528ZM1306.07,135.615L1305.98,135.615C1304.62,135.528 1302.17,135.528 1299.89,135.528C1294.46,135.528 1294.41,135.528 1294.41,136.404C1294.41,143.152 1294.41,145.212 1294.55,146.264C1294.72,147.929 1295.64,148.893 1297.96,149.068C1298.71,149.112 1301.12,149.112 1303.53,149.112C1305.98,149.112 1308.44,149.112 1309.23,149.068L1309.36,149.068C1310.23,149.068 1310.72,149.638 1310.72,150.251C1310.72,150.865 1310.23,151.522 1309.18,151.566C1308.61,151.61 1306.03,151.61 1303.44,151.61C1300.9,151.61 1298.32,151.61 1297.75,151.566C1293.89,151.259 1292.01,149.506 1291.87,146.658C1291.79,144.818 1291.79,141.663 1291.79,138.201C1291.79,132.986 1291.83,127.202 1291.92,124.441C1292.01,121.593 1293.76,119.884 1297,119.709C1297.83,119.665 1300.29,119.621 1302.7,119.621C1305.15,119.621 1307.52,119.665 1308.17,119.709C1309.1,119.753 1309.58,120.366 1309.58,120.98C1309.58,121.593 1309.05,122.207 1308.09,122.207C1307.87,122.207 1303.7,122.163 1300.59,122.163C1296.17,122.163 1294.77,122.163 1294.55,124.836C1294.46,125.887 1294.5,129.568 1294.46,132.154C1294.46,132.986 1294.9,132.986 1295.34,132.986C1296.21,133.03 1298.45,133.03 1300.68,133.03C1302.92,133.03 1305.19,133.03 1306.07,132.986C1307.43,132.942 1307.56,133.95 1307.56,134.257C1307.56,134.914 1307.04,135.615 1306.07,135.615ZM1170.01,149.462C1162.78,149.462 1156.95,143.985 1156.95,135.659C1156.95,127.29 1162.78,121.725 1170.01,121.725C1177.24,121.725 1183.07,127.29 1183.07,135.659C1183.07,143.985 1177.24,149.462 1170.01,149.462ZM1234.6,149.462C1227.37,149.462 1221.54,143.985 1221.54,135.659C1221.54,127.29 1227.37,121.725 1234.6,121.725C1241.83,121.725 1247.66,127.29 1247.66,135.659C1247.66,143.985 1241.83,149.462 1234.6,149.462ZM1282.15,135.572C1282.15,148.937 1272.46,149.243 1266.37,149.243C1261.64,149.243 1260.85,147.973 1260.63,145.869C1260.45,144.029 1260.41,140.129 1260.41,136.141C1260.41,131.54 1260.5,126.895 1260.63,125.143C1260.85,122.075 1263.57,122.031 1267.86,122.031C1268.65,122.031 1269.35,122.075 1269.66,122.075C1277.59,122.294 1282.15,127.816 1282.15,135.572ZM1143.37,127.509C1143.37,130.401 1141.04,133.381 1136.97,133.687C1136.13,133.731 1134.69,133.775 1133.29,133.775C1129.69,133.775 1129.04,133.687 1129.04,133.03C1129.08,130.401 1129.04,125.931 1129.12,124.836C1129.3,122.338 1130.83,121.725 1134.08,121.725C1135.08,121.725 1136.05,121.768 1136.66,121.812C1141.31,122.075 1143.37,124.748 1143.37,127.509ZM1212.55,64.181C1213.76,65.28 1213.5,67.541 1211.97,69.226C1210.44,70.911 1208.21,71.387 1207,70.288C1205.79,69.189 1206.05,66.928 1207.58,65.243C1209.11,63.558 1211.34,63.082 1212.55,64.181ZM1223.77,56.078C1224.6,56.835 1224.42,58.392 1223.37,59.553C1222.32,60.713 1220.78,61.041 1219.95,60.284C1219.12,59.527 1219.29,57.97 1220.35,56.809C1221.4,55.648 1222.93,55.321 1223.77,56.078ZM1138.07,20.333C1139.64,20.333 1140.92,22.991 1140.92,26.265C1140.92,29.539 1139.64,32.196 1138.07,32.196C1136.5,32.196 1135.22,29.539 1135.22,26.265C1135.22,22.991 1136.5,20.333 1138.07,20.333ZM1155.71,19.965C1157.28,19.965 1158.56,22.623 1158.56,25.897C1158.56,29.17 1157.28,31.828 1155.71,31.828C1154.13,31.828 1152.86,29.17 1152.86,25.897C1152.86,22.623 1154.13,19.965 1155.71,19.965Z" style="fill:rgb(255,255,255);"/>
            </g>
            <g transform="matrix(-1.01019,2.68655e-17,2.16927e-17,-0.939067,1745.53,1147.14)">
                <g transform="matrix(16,0,0,16,409.315,386.192)">
                    <path d="M0.211,0.013C0.421,0.013 0.557,-0.18 0.557,-0.379C0.557,-0.501 0.502,-0.561 0.433,-0.561C0.374,-0.561 0.301,-0.514 0.239,-0.454L0.302,-0.781L0.207,-0.773L0.06,-0.015C0.106,0 0.167,0.013 0.211,0.013ZM0.282,-0.067C0.255,-0.067 0.213,-0.074 0.167,-0.088L0.223,-0.372C0.277,-0.425 0.344,-0.471 0.39,-0.471C0.431,-0.471 0.464,-0.435 0.464,-0.356C0.464,-0.218 0.382,-0.067 0.282,-0.067Z" style="fill:rgb(255,255,255);fill-rule:nonzero;"/>
                </g>
                <g transform="matrix(16,0,0,16,419.107,386.192)">
                    <path d="M0.321,-0.643L0.367,-0.788L0.252,-0.781L0.216,-0.636L0.321,-0.643ZM0.385,-0.054L0.373,-0.102C0.204,-0.055 0.18,-0.066 0.208,-0.184L0.294,-0.551L0.2,-0.544L0.098,-0.41L0.161,-0.37L0.111,-0.166C0.069,0.003 0.161,0.074 0.385,-0.054Z" style="fill:rgb(255,255,255);fill-rule:nonzero;"/>
                </g>
                <g transform="matrix(16,0,0,16,425.491,386.192)">
                    <path d="M0.437,-0.059L0.426,-0.108C0.217,-0.041 0.184,-0.074 0.21,-0.19L0.272,-0.467L0.462,-0.467L0.476,-0.543L0.289,-0.543L0.326,-0.706L0.256,-0.701L0.159,-0.543L0.099,-0.543L0.078,-0.467L0.179,-0.467L0.115,-0.185C0.075,-0.006 0.184,0.091 0.437,-0.059Z" style="fill:rgb(255,255,255);fill-rule:nonzero;"/>
                </g>
                <g transform="matrix(16,0,0,16,433.155,386.192)">
                    <path d="M0.484,-0.064L0.472,-0.112C0.23,-0.04 0.15,-0.072 0.15,-0.203C0.375,-0.22 0.512,-0.297 0.512,-0.43C0.512,-0.51 0.46,-0.561 0.371,-0.561C0.198,-0.561 0.057,-0.367 0.057,-0.186C0.057,-0.014 0.194,0.094 0.484,-0.064ZM0.342,-0.477C0.391,-0.477 0.419,-0.448 0.419,-0.405C0.419,-0.32 0.314,-0.277 0.156,-0.265C0.175,-0.375 0.245,-0.477 0.342,-0.477Z" style="fill:rgb(255,255,255);fill-rule:nonzero;"/>
                </g>
                <g transform="matrix(16,0,0,16,446.947,386.192)">
                    <path d="M0.437,-0.059L0.426,-0.108C0.217,-0.041 0.184,-0.074 0.21,-0.19L0.272,-0.467L0.462,-0.467L0.476,-0.543L0.289,-0.543L0.326,-0.706L0.256,-0.701L0.159,-0.543L0.099,-0.543L0.078,-0.467L0.179,-0.467L0.115,-0.185C0.075,-0.006 0.184,0.091 0.437,-0.059Z" style="fill:rgb(255,255,255);fill-rule:nonzero;"/>
                </g>
                <g transform="matrix(16,0,0,16,454.707,386.192)">
                    <path d="M0.627,-0.046L0.614,-0.095C0.518,-0.066 0.504,-0.07 0.504,-0.096C0.504,-0.156 0.58,-0.347 0.58,-0.456C0.58,-0.514 0.553,-0.561 0.475,-0.561C0.402,-0.561 0.317,-0.519 0.235,-0.434L0.302,-0.781L0.207,-0.773L0.057,0L0.151,0L0.218,-0.344C0.294,-0.43 0.362,-0.47 0.416,-0.47C0.459,-0.47 0.476,-0.448 0.476,-0.41C0.476,-0.324 0.402,-0.144 0.402,-0.057C0.402,0.019 0.472,0.041 0.627,-0.046Z" style="fill:rgb(255,255,255);fill-rule:nonzero;"/>
                </g>
                <g transform="matrix(16,0,0,16,465.395,386.192)">
                    <path d="M0.484,-0.064L0.472,-0.112C0.23,-0.04 0.15,-0.072 0.15,-0.203C0.375,-0.22 0.512,-0.297 0.512,-0.43C0.512,-0.51 0.46,-0.561 0.371,-0.561C0.198,-0.561 0.057,-0.367 0.057,-0.186C0.057,-0.014 0.194,0.094 0.484,-0.064ZM0.342,-0.477C0.391,-0.477 0.419,-0.448 0.419,-0.405C0.419,-0.32 0.314,-0.277 0.156,-0.265C0.175,-0.375 0.245,-0.477 0.342,-0.477Z" style="fill:rgb(255,255,255);fill-rule:nonzero;"/>
                </g>
                <g transform="matrix(16,0,0,16,479.187,386.192)">
                    <path d="M0.501,-0.373C0.51,-0.507 0.469,-0.561 0.371,-0.561C0.207,-0.561 0.058,-0.386 0.058,-0.193C0.058,-0.019 0.188,0.09 0.464,-0.053L0.452,-0.101C0.227,-0.04 0.152,-0.082 0.152,-0.213C0.152,-0.352 0.239,-0.476 0.341,-0.476C0.394,-0.476 0.413,-0.445 0.412,-0.371L0.501,-0.373Z" style="fill:rgb(255,255,255);fill-rule:nonzero;"/>
                </g>
                <g transform="matrix(16,0,0,16,487.875,386.192)">
                    <path d="M0.059,-0.208C0.059,-0.068 0.135,0.014 0.252,0.014C0.408,0.014 0.55,-0.149 0.55,-0.339C0.55,-0.479 0.473,-0.561 0.357,-0.561C0.201,-0.561 0.059,-0.399 0.059,-0.208ZM0.454,-0.316C0.454,-0.186 0.384,-0.067 0.277,-0.067C0.201,-0.067 0.155,-0.127 0.155,-0.231C0.155,-0.361 0.225,-0.481 0.332,-0.481C0.408,-0.481 0.454,-0.42 0.454,-0.316Z" style="fill:rgb(255,255,255);fill-rule:nonzero;"/>
                </g>
                <g transform="matrix(16,0,0,16,497.619,386.192)">
                    <path d="M0.222,-0.078C0.179,-0.078 0.148,-0.117 0.148,-0.193C0.148,-0.331 0.23,-0.481 0.33,-0.481C0.357,-0.481 0.4,-0.474 0.445,-0.46L0.39,-0.174C0.336,-0.122 0.268,-0.078 0.222,-0.078ZM0.593,-0.047L0.58,-0.095C0.467,-0.062 0.463,-0.072 0.475,-0.14L0.601,-0.781L0.506,-0.773L0.464,-0.557C0.442,-0.56 0.421,-0.561 0.401,-0.561C0.191,-0.561 0.055,-0.367 0.055,-0.168C0.055,-0.047 0.109,0.014 0.178,0.014C0.238,0.014 0.313,-0.034 0.376,-0.094C0.366,0.014 0.42,0.054 0.593,-0.047Z" style="fill:rgb(255,255,255);fill-rule:nonzero;"/>
                </g>
                <g transform="matrix(16,0,0,16,507.651,386.192)">
                    <path d="M0.484,-0.064L0.472,-0.112C0.23,-0.04 0.15,-0.072 0.15,-0.203C0.375,-0.22 0.512,-0.297 0.512,-0.43C0.512,-0.51 0.46,-0.561 0.371,-0.561C0.198,-0.561 0.057,-0.367 0.057,-0.186C0.057,-0.014 0.194,0.094 0.484,-0.064ZM0.342,-0.477C0.391,-0.477 0.419,-0.448 0.419,-0.405C0.419,-0.32 0.314,-0.277 0.156,-0.265C0.175,-0.375 0.245,-0.477 0.342,-0.477Z" style="fill:rgb(255,255,255);fill-rule:nonzero;"/>
                </g>
            </g>
        </g>
    </g>
</svg>
