<svg id="Rabobank" xmlns="http://www.w3.org/2000/svg" xmlns:xlink="http://www.w3.org/1999/xlink" width="471.526" height="188.006" viewBox="0 0 471.526 188.006">
  <defs>
    <clipPath id="clip-path">
      <path id="Path_141" data-name="Path 141" d="M67.283,160.733c-16.918,0-29.341-4.794-37.285-12.751-6.992-7-8.049-16.669-4.738-23.431a24.449,24.449,0,0,1,5.415-7.186,23.533,23.533,0,0,0-4.261,5.885s0,0,0,0l-.009.019a.073.073,0,0,1-.009.017.024.024,0,0,1-.006.013l-.016.032v0l-.017.032v0c-.018.034-.035.068-.052.1,0,0,0,0,0,0a.218.218,0,0,1-.017.033c-.083.173-.164.345-.241.517-3.089,6.9-1.742,14.451,4.853,21.057q.71.713,1.483,1.389c7.891,6.934,20.4,11.141,34.775,11.142,15.272,0,28.43-4.747,36.189-12.467.022-.022.044-.043.064-.066.33-.329.645-.658.949-.993,0,0,0,0,0-.007l.018-.021a23.392,23.392,0,0,0,3.269-4.562,16.776,16.776,0,0,0,2.043-10.54,18.087,18.087,0,0,0-1.524-5.14l0-.009-.007-.016-.134-.284c-.076-.157-.153-.313-.234-.468a23.539,23.539,0,0,0-4-5.514,24.04,24.04,0,0,1,5.185,6.806c3.062,6.013,2.772,15.985-4.692,23.647-7.613,7.814-20.037,12.751-37,12.751Z" transform="translate(-23.456 -117.366)"/>
    </clipPath>
    <clipPath id="clip-path-2">
      <path id="Path_267" data-name="Path 267" d="M32.468,145.66c-.514-.451-1.009-.912-1.483-1.388-6.6-6.606-7.942-14.157-4.853-21.057.077-.171.157-.342.239-.514,2.912-6.035,8.99-10.97,16.844-14.294a62.385,62.385,0,0,1,24.025-4.6c.2,0,.393,0,.589,0a25.655,25.655,0,0,0-.239,3.019h-.084c-11.283,0-29.271,3.935-32.174,17.174a13.725,13.725,0,0,0,.071,6.6c1.326,5.674,6.456,9.682,12.545,12.314a64.018,64.018,0,0,1-15.481,2.745Zm17.524-3.433c-6.314-2.448-11.84-6.336-13.387-12.007a13.352,13.352,0,0,1,.007-5.906c2.733-12.791,20.134-16.587,31-16.587h.008c.006.109.016.219.026.329-1.225,3.017-2.3,6.091-3.306,9.188a150.606,150.606,0,0,0-15.47-4.945c.178.113.352.23.529.345a.011.011,0,0,1,.007,0,123.62,123.62,0,0,1,10.031,7.391c-7,.912-13.823,2.1-20.724,3.623,7.033.1,13.621.2,20.491.649-4.847,4.19-9.114,8.145-13.621,12.705,6.375-3.453,12.227-6.405,18.658-9.5.37,1.628.723,3.236,1.065,4.836-3.494,4.023-8.678,7.479-15.313,9.88Zm-.346-8.247c4.78-3.514,9.666-6.872,14.686-10.021l.043.2q.2.88.4,1.76-7.695,3.77-15.126,8.061Zm17.815-4.518c-.052-1.842-.109-3.691-.164-5.512.762-.2,1.453-.389,1.453-.389a5.451,5.451,0,0,1,.737-.047c.171,0,.344.008.519.019a19.59,19.59,0,0,1-2.545,5.929Zm-3.128-5.5c-7.041-.57-12.426-.837-19.358-.857,7.888-.693,14.229-1.072,22.262-1.2l.007.249q-1.464.888-2.91,1.8Zm2.938-.884-.02-.68c.138-.083.276-.165.413-.25.074.04.147.08.221.122-.205.246-.407.511-.612.808Zm-.028-.917v0l.212-.127-.125.077-.085.053Zm.212-.13c-.074-.041-.143-.082-.212-.122l.424-.007c-.07.042-.142.085-.212.129Zm-.218-.122v0l.007,0h-.007Zm.961-.006h-.53q.612-.371,1.228-.736c-.247.25-.477.489-.7.737Zm-.53,0q-1.63-.967-3.274-1.9c1-3.439,2.065-6.859,3.269-10.232l0,12.129Zm-6.294-1.57c-3.05-2.358-6.178-4.609-9.415-6.7,4.249,1.913,8.384,4.061,12.436,6.368Q62.883,120.155,61.373,120.329Zm9.065-1.967-.022-.077.017-.008.006.085Z" transform="translate(-24.552 -103.806)"/>
    </clipPath>
    <clipPath id="clip-path-3">
      <path id="Path_288" data-name="Path 288" d="M114.88,140.24a17.358,17.358,0,0,0,2.192-8.329,16.274,16.274,0,0,0-.151-2.209,16.778,16.778,0,0,1-2.042,10.538Z" transform="translate(-114.879 -129.702)"/>
    </clipPath>
    <clipPath id="clip-path-4">
      <path id="Path_298" data-name="Path 298" d="M70.964,125.128l-.026-.877c.205-.3.407-.561.612-.808.685.368,1.451.74,2.159,1.116-.012.051-.024.1-.037.15-.175-.009-.347-.016-.518-.016a5.271,5.271,0,0,0-.737.047s-.693.188-1.455.388Z" transform="translate(-70.938 -123.443)"/>
    </clipPath>
    <clipPath id="clip-path-5">
      <path id="Path_305" data-name="Path 305" d="M74.058,122.966c-.705-.009-1.409-.015-2.115-.019.221-.246.451-.486.7-.735q.785-.465,1.57-.919a16.667,16.667,0,0,1-.152,1.673Z" transform="translate(-71.943 -121.293)"/>
    </clipPath>
    <clipPath id="clip-path-6">
      <path id="Path_313" data-name="Path 313" d="M115.407,124.183l0-.009.006.009Zm-.012-.025-.134-.284C115.308,123.967,115.352,124.063,115.4,124.157Zm-.134-.284-.014-.028-.009-.021s0,0,0,0c-.067-.139-.136-.276-.208-.414.081.154.158.31.234.467Z" transform="translate(-115.028 -123.407)"/>
    </clipPath>
    <clipPath id="clip-path-7">
      <path id="Path_317" data-name="Path 317" d="M110.2,146.851c.022-.022.044-.042.064-.066.33-.329.645-.658.949-.993-.3.334-.619.665-.949.994-.02.024-.042.044-.064.066Zm1.018-1.065.018-.021Z" transform="translate(-110.203 -145.765)"/>
    </clipPath>
    <clipPath id="clip-path-8">
      <path id="Path_367" data-name="Path 367" d="M54.326,79.909a3.336,3.336,0,0,1,.786-2.489c.783-1.163.405-1.753,1.1-2.752a80.4,80.4,0,0,1,5.222-6.345c1.278-1.325,3.015-5.785,3.426-7.353.076-.229.2-.343.25-.145a64.48,64.48,0,0,1,.577,8.419c-.215,6.169-.052,5.522,2.461,11.282.208-2.315.755-5.678,2.081-6.815-1.544,6-1.639,14.561-1.8,17.2-.083,1.339-.44,3.453.191,4.687a15.556,15.556,0,0,1,.247,3.048l.039,10.53-.9,4.619a8.8,8.8,0,0,1-3.255,4.271c-.4.223-1.326.729-1.326,1.182,0,.728,4.608,2.092,5.658.432a14.247,14.247,0,0,1,2.382-2.854c1.45-1.417-.158-2.877.032-4.8.332-3.347,1.742-6.251,2.2-9.41a10.379,10.379,0,0,0-.62-5.75l.613-6.04A39.558,39.558,0,0,1,75.652,94.9a11.48,11.48,0,0,0,3.159,4.691,13.44,13.44,0,0,1,1.867,2.294,8.251,8.251,0,0,1,1.5,4.834c-.691,1.273-.987,1.194-1.871,1.967.029.042-.245.745.6.745,3,0,2.625-1.6,3.759-3.668.732-1.34,2.834-3.375.528-4.08a3.146,3.146,0,0,1-1.823-1.382,18.374,18.374,0,0,1-2.491-5.165,8.335,8.335,0,0,0-2.735-3.743,15.833,15.833,0,0,1-1.271-4.749c-.322-2.465-.542-4.23-.951-6.753,1.17-4.736,1.768-5.738-.221-10.291a8.367,8.367,0,0,1-.715-3.4,22.135,22.135,0,0,1,1.608-6.674A2.675,2.675,0,0,1,77.8,57.92c.483,1.836,2.146,5.612,3.11,6.537a7.181,7.181,0,0,0,.317,2.192c1.216,2.977,2.965,5.687,3.837,8.825a3.448,3.448,0,0,1-.4,2.469,8,8,0,0,0,.067,2.527l.416.232a14.35,14.35,0,0,1-.405,1.385c.052.426.565.667.565.667.668-.15,1.621-2.62,1.588-3.606a20.644,20.644,0,0,0-.9-5.272c-.985-5.123-.416-6.53-3.226-11.485l-1.6-4.029c-.2-2.065-1-6.773-3.592-7.618-.436-.141-.873-.167-1.532-.385-3.389-1.122-3.378-3.777-2.453-6.677.822-2.583.93-5.627-2.792-5.949-2.3-.2-3,1.654-3.493,3.785.016.231.131,3.694.632,4.442.985.746,1.538.526,1.476,2.4a3.183,3.183,0,0,1-2.361,2.98c-2.166.777-3.272,1.231-4,3.511a10.817,10.817,0,0,0-.43,3.279v.1c-.62,1.565-1.4,3.36-1.873,5.042C58.082,66,56.759,72.208,54.061,74.829c-1.794,1.739-2.336,1.852-1.679,4.536.066.273.926.971,1.111,1.072.132.049.843-.376.838-.53Z" transform="translate(-52.113 -37.72)"/>
    </clipPath>
  </defs>
  <path id="Path_26" data-name="Path 26" d="M0,0H471.526V188.006H0Z" fill="none"/>
  <path id="Path_27" data-name="Path 27" d="M293.537,105.551c.728-4.025,1.5-11.846-5.286-11.846-4.562,0-8.825,3.158-10.738,14.232-1.169,6.755.11,12.181,5.4,12.181C286.775,120.118,291.489,116.86,293.537,105.551Zm-26.482,4.51c1.525-14.559,7.957-23.57,23.247-23.57,11.355,0,15.108,8.849,13.584,18.349-2.441,15.21-8.237,22.365-22.79,22.365-9.426,0-15.011-7.845-14.04-17.143ZM246.564,94.142c5.065,0,7.215,3.493,6.018,12.448-1.222,9.152-5.733,13.257-11.086,13.257-3.352,0-5.279-2.4-4.637-6.115l1.857-11.8c.712-4.371,3.28-7.793,7.775-7.793Zm-4.14,32.842c11.845,0,18.623-8.737,20.475-20.026,2.358-13.907-4.282-20.243-12.626-20.243-3.923,0-6.756.359-8.973,1.525l3.214-19.151h-9.868l-9.775,57.206h7.421s1.068-2.371,2.143-2.371c.709,0,2.424,3.059,7.989,3.059Zm125.649-18.716c-1.589,11.506-3.091,12.658-8.517,12.658-3.709,0-5.091-2.595-4.459-6,.863-4.631,4.29-6.655,12.976-6.655ZM379.849,98c1.424-8.445-3-11.359-11.917-11.359-11.13,0-15.983,5.393-15.983,5.393l3.424,5.894a14.463,14.463,0,0,1,10.775-4.3c4.008,0,4.093,2.075,3.71,4.3l-.783,5.029c-14.343-.37-21.692,2.76-23.33,12.376-1.356,7.864,4.423,11.656,10.91,11.656a12.452,12.452,0,0,0,9.351-3.428c.642,1.9,1.782,2.9,3.067,3.114,2.069.442,5.636-.056,6.706-.859-.071-1.163,0-4.147,1.213-11.139L379.85,98Zm-169.1,10.267c-1.588,11.508-3.09,12.659-8.517,12.659-3.711,0-5.09-2.595-4.457-6,.862-4.631,4.292-6.655,12.976-6.655ZM222.517,98c1.429-8.445-3-11.359-11.917-11.359-11.128,0-15.981,5.393-15.981,5.393l3.426,5.894a14.456,14.456,0,0,1,10.775-4.3c4.008,0,4.089,2.075,3.707,4.3l-.783,5.029c-14.341-.37-21.688,2.76-23.331,12.376-1.354,7.864,4.424,11.656,10.916,11.656a12.443,12.443,0,0,0,9.348-3.428c.645,1.9,1.784,2.9,3.067,3.114,2.07.442,5.638-.056,6.71-.859-.074-1.163,0-4.147,1.209-11.139ZM177.688,87.46c-.856,4.952-4.614,8.432-9.256,8.432h-5.848l3.032-17.607,5.316-.025c6.31,0,7.54,4.246,6.755,9.2Zm-2,13.288a16.238,16.238,0,0,0,11.942-11.412c2.566-10.635-2.069-18.938-15.338-18.788l-15.214-.016L147.53,126.3h9.919l3.923-22.4c9.14-.254,10.254,2.016,11.979,12.888l1.568,9.508H185.2c-1.21-5.75-2-11.182-3-15.551-1.068-4.589-2.735-8.18-7.02-9.88l.5-.117Zm285.9-14.035H449.96l-13.367,14.46-.2-.026,5.351-32.024h-9.7L422.274,126.3h9.848l1-5.722,1.993-12.521c5.205,0,8.132.583,10.416,11.137l1.57,7.107h10.059s-2.5-10.818-4.142-15.041c-1.713-4.446-3.584-7.379-7.582-8.178l16.147-16.363Zm-41.6,12.816c1.5-8.665-1.642-12.89-10.843-12.89-6.85,0-9.546,3.078-12.112,5.7l.251-4.827-9.111.058-.707,7.149-5.28,31.574h9.977l3.214-20.5c1.137-7.063,5.922-12.452,10.413-12.452,5,0,4.936,2.914,4.151,7.353l-4.349,25.6h9.9ZM315.3,123.924c.715,0,2.422,3.06,7.989,3.06,11.845,0,18.622-8.737,20.478-20.026,2.354-13.907-4.282-20.243-12.626-20.243-3.928,0-6.861.359-9,1.525l3.212-19.151h-9.838l-9.771,57.206h7.416s1.072-2.371,2.212-2.371H315.3Zm18.076-17.334c-1.333,8.7-5.732,13.257-11.015,13.257-3.35,0-5.28-2.4-4.709-6.115l1.857-11.8c.714-4.371,3.28-7.793,7.849-7.793,5.065,0,7.386,3.519,6.016,12.448" transform="translate(-11.662 -4.143)" fill="#27317c"/>
  <g id="Group_26" data-name="Group 26" transform="translate(21.601 110.328)" clip-path="url(#clip-path)">
    <path id="Path_28" data-name="Path 28" d="M21.82,160.733h1.847V117.366H21.82Z" transform="translate(-23.326 -117.366)" fill="#ba5c30"/>
    <path id="Path_29" data-name="Path 29" d="M23.826,160.733h.682V117.366h-.682Z" transform="translate(-23.485 -117.366)" fill="#ba5b30"/>
    <path id="Path_30" data-name="Path 30" d="M24.567,160.733h.683V117.366h-.684Z" transform="translate(-23.543 -117.366)" fill="#b95b30"/>
    <path id="Path_31" data-name="Path 31" d="M25.31,160.733h.681V117.366H25.31Z" transform="translate(-23.602 -117.366)" fill="#b85b30"/>
    <path id="Path_32" data-name="Path 32" d="M26.05,160.733h.682V117.366H26.05Z" transform="translate(-23.661 -117.366)" fill="#b75b30"/>
    <path id="Path_33" data-name="Path 33" d="M26.79,160.733h.683V117.366h-.682Z" transform="translate(-23.719 -117.366)" fill="#b65a30"/>
    <path id="Path_34" data-name="Path 34" d="M27.532,160.733h.681V117.366h-.681Z" transform="translate(-23.778 -117.366)" fill="#b65a31"/>
    <path id="Path_35" data-name="Path 35" d="M28.272,160.733h.683V117.366h-.683Z" transform="translate(-23.836 -117.366)" fill="#b55931"/>
    <path id="Path_36" data-name="Path 36" d="M29.014,160.733H29.7V117.366h-.682Z" transform="translate(-23.895 -117.366)" fill="#b45931"/>
    <path id="Path_37" data-name="Path 37" d="M29.755,160.733h.681V117.366h-.681Z" transform="translate(-23.954 -117.366)" fill="#b45831"/>
    <path id="Path_38" data-name="Path 38" d="M30.495,160.733h.683V117.366h-.683Z" transform="translate(-24.012 -117.366)" fill="#b35831"/>
    <path id="Path_39" data-name="Path 39" d="M31.237,160.733h.681V117.366h-.681Z" transform="translate(-24.071 -117.366)" fill="#b25731"/>
    <path id="Path_40" data-name="Path 40" d="M31.977,160.733h.681V117.366h-.681Z" transform="translate(-24.129 -117.366)" fill="#b15731"/>
    <path id="Path_41" data-name="Path 41" d="M32.718,160.733H33.4V117.366h-.683Z" transform="translate(-24.188 -117.366)" fill="#b15631"/>
    <path id="Path_42" data-name="Path 42" d="M33.46,160.733h.682V117.366H33.46Z" transform="translate(-24.246 -117.366)" fill="#b05631"/>
    <path id="Path_43" data-name="Path 43" d="M34.2,160.733h.682V117.366H34.2Z" transform="translate(-24.305 -117.366)" fill="#af5531"/>
    <path id="Path_44" data-name="Path 44" d="M34.94,160.733h.684V117.366h-.683Z" transform="translate(-24.363 -117.366)" fill="#ae5531"/>
    <path id="Path_45" data-name="Path 45" d="M35.683,160.733h.681V117.366h-.681Z" transform="translate(-24.422 -117.366)" fill="#ae5532"/>
    <path id="Path_46" data-name="Path 46" d="M36.423,160.733H37.1V117.366h-.682Z" transform="translate(-24.481 -117.366)" fill="#ad5532"/>
    <path id="Path_47" data-name="Path 47" d="M37.164,160.733h.683V117.366h-.683Zm.683,0h.682V117.366h-.682Z" transform="translate(-24.539 -117.366)" fill="#ac5432"/>
    <path id="Path_48" data-name="Path 48" d="M38.646,160.733h.682V117.366h-.682Z" transform="translate(-24.656 -117.366)" fill="#ab5332"/>
    <path id="Path_49" data-name="Path 49" d="M39.388,160.733h.682V117.366h-.682Z" transform="translate(-24.715 -117.366)" fill="#aa5332"/>
    <path id="Path_50" data-name="Path 50" d="M40.13,160.733h.681V117.366H40.13Z" transform="translate(-24.774 -117.366)" fill="#aa5232"/>
    <path id="Path_51" data-name="Path 51" d="M40.87,160.733h.681V117.366H40.87Z" transform="translate(-24.832 -117.366)" fill="#a95232"/>
    <path id="Path_52" data-name="Path 52" d="M41.61,160.733h.683V117.366h-.682Z" transform="translate(-24.891 -117.366)" fill="#a85132"/>
    <path id="Path_53" data-name="Path 53" d="M42.35,160.733h.683V117.366h-.682Z" transform="translate(-24.949 -117.366)" fill="#a75132"/>
    <path id="Path_54" data-name="Path 54" d="M43.092,160.733h.683V117.366h-.683Z" transform="translate(-25.008 -117.366)" fill="#a75032"/>
    <path id="Path_55" data-name="Path 55" d="M43.834,160.733h.682V117.366h-.682Z" transform="translate(-25.067 -117.366)" fill="#a65032"/>
    <path id="Path_56" data-name="Path 56" d="M44.574,160.733h.681V117.366h-.681Z" transform="translate(-25.125 -117.366)" fill="#a55033"/>
    <path id="Path_57" data-name="Path 57" d="M45.315,160.733H46V117.366h-.683Z" transform="translate(-25.184 -117.366)" fill="#a45033"/>
    <path id="Path_58" data-name="Path 58" d="M46.057,160.733h.682V117.366h-.682Z" transform="translate(-25.242 -117.366)" fill="#a44f33"/>
    <path id="Path_59" data-name="Path 59" d="M46.8,160.733h1.022V117.366H46.8Z" transform="translate(-25.301 -117.366)" fill="#a34f33"/>
    <path id="Path_60" data-name="Path 60" d="M47.908,160.733h.683V117.366h-.683Zm.683,0h.681V117.366h-.681Z" transform="translate(-25.389 -117.366)" fill="#a24e33"/>
    <path id="Path_61" data-name="Path 61" d="M49.39,160.733h.684V117.366h-.683Z" transform="translate(-25.506 -117.366)" fill="#a14d33"/>
    <path id="Path_62" data-name="Path 62" d="M50.132,160.733h.682V117.366h-.682Z" transform="translate(-25.564 -117.366)" fill="#a04d33"/>
    <path id="Path_63" data-name="Path 63" d="M50.873,160.733h.682V117.366h-.682Zm.682,0h.683V117.366h-.683Z" transform="translate(-25.623 -117.366)" fill="#9f4c33"/>
    <path id="Path_64" data-name="Path 64" d="M52.355,160.733h.682V117.366h-.682Z" transform="translate(-25.74 -117.366)" fill="#9e4c33"/>
    <path id="Path_65" data-name="Path 65" d="M53.1,160.733h.681V117.366H53.1Z" transform="translate(-25.799 -117.366)" fill="#9d4c33"/>
    <path id="Path_66" data-name="Path 66" d="M53.837,160.733h.682V117.366h-.682Z" transform="translate(-25.857 -117.366)" fill="#9c4b33"/>
    <path id="Path_67" data-name="Path 67" d="M54.578,160.733h.682V117.366h-.682Z" transform="translate(-25.916 -117.366)" fill="#9c4b34"/>
    <path id="Path_68" data-name="Path 68" d="M55.32,160.733h.341V117.366H55.32Z" transform="translate(-25.975 -117.366)" fill="#9b4a34"/>
    <path id="Path_69" data-name="Path 69" d="M55.69,160.733h.341V117.366H55.69Zm.341,0h.341V117.366h-.341Z" transform="translate(-26.004 -117.366)" fill="#9a4a34"/>
    <path id="Path_70" data-name="Path 70" d="M56.43,160.733h.341V117.366H56.43Z" transform="translate(-26.062 -117.366)" fill="#994a34"/>
    <path id="Path_71" data-name="Path 71" d="M56.8,160.733h.683V117.366H56.8Z" transform="translate(-26.092 -117.366)" fill="#994934"/>
    <path id="Path_72" data-name="Path 72" d="M57.542,160.733h.683V117.366h-.683Z" transform="translate(-26.15 -117.366)" fill="#984934"/>
    <path id="Path_73" data-name="Path 73" d="M58.283,160.733h.682V117.366h-.682Zm.682,0h.682V117.366h-.682Z" transform="translate(-26.209 -117.366)" fill="#974834"/>
    <path id="Path_74" data-name="Path 74" d="M59.765,160.733h.683V117.366h-.683Z" transform="translate(-26.326 -117.366)" fill="#964834"/>
    <path id="Path_75" data-name="Path 75" d="M60.5,160.733h.683V117.366H60.5Z" transform="translate(-26.384 -117.366)" fill="#954834"/>
    <path id="Path_76" data-name="Path 76" d="M61.247,160.733h.681V117.366h-.681Zm.682,0h.683V117.366h-.683Z" transform="translate(-26.443 -117.366)" fill="#944734"/>
    <path id="Path_77" data-name="Path 77" d="M62.728,160.733h.683V117.366h-.683Z" transform="translate(-26.56 -117.366)" fill="#934634"/>
    <path id="Path_78" data-name="Path 78" d="M63.47,160.733h.682V117.366H63.47Z" transform="translate(-26.619 -117.366)" fill="#924634"/>
    <path id="Path_79" data-name="Path 79" d="M64.21,160.733h.684V117.366h-.683Z" transform="translate(-26.677 -117.366)" fill="#914534"/>
    <path id="Path_80" data-name="Path 80" d="M64.952,160.733h.681V117.366h-.681Z" transform="translate(-26.736 -117.366)" fill="#914534"/>
    <path id="Path_81" data-name="Path 81" d="M65.693,160.733h.682V117.366h-.682Z" transform="translate(-26.795 -117.366)" fill="#904534"/>
    <path id="Path_82" data-name="Path 82" d="M66.434,160.733h.681V117.366h-.681Z" transform="translate(-26.853 -117.366)" fill="#8f4534"/>
    <path id="Path_83" data-name="Path 83" d="M67.175,160.733h.681V117.366h-.681Z" transform="translate(-26.912 -117.366)" fill="#8f4434"/>
    <path id="Path_84" data-name="Path 84" d="M67.916,160.733H68.6V117.366h-.682Z" transform="translate(-26.97 -117.366)" fill="#8e4434"/>
    <path id="Path_85" data-name="Path 85" d="M68.657,160.733h.682V117.366h-.682Z" transform="translate(-27.029 -117.366)" fill="#8d4334"/>
    <path id="Path_86" data-name="Path 86" d="M69.4,160.733h.682V117.366H69.4Z" transform="translate(-27.087 -117.366)" fill="#8c4334"/>
    <path id="Path_87" data-name="Path 87" d="M70.14,160.733h1.022V117.366H70.14Z" transform="translate(-27.146 -117.366)" fill="#8c4234"/>
    <path id="Path_88" data-name="Path 88" d="M71.25,160.733h.683V117.366h-.682Z" transform="translate(-27.234 -117.366)" fill="#8b4234"/>
    <path id="Path_89" data-name="Path 89" d="M71.99,160.733h.684V117.366h-.683Z" transform="translate(-27.292 -117.366)" fill="#8a4234"/>
    <path id="Path_90" data-name="Path 90" d="M72.733,160.733h.681V117.366h-.681Z" transform="translate(-27.351 -117.366)" fill="#894234"/>
    <path id="Path_91" data-name="Path 91" d="M73.474,160.733h.682V117.366h-.682Z" transform="translate(-27.41 -117.366)" fill="#894134"/>
    <path id="Path_92" data-name="Path 92" d="M74.214,160.733H74.9V117.366h-.683Z" transform="translate(-27.468 -117.366)" fill="#884134"/>
    <path id="Path_93" data-name="Path 93" d="M74.956,160.733h.681V117.366h-.681Z" transform="translate(-27.527 -117.366)" fill="#874034"/>
    <path id="Path_94" data-name="Path 94" d="M75.7,160.733h.683V117.366H75.7Z" transform="translate(-27.585 -117.366)" fill="#864034"/>
    <path id="Path_95" data-name="Path 95" d="M76.437,160.733h.683V117.366h-.684Z" transform="translate(-27.644 -117.366)" fill="#864034"/>
    <path id="Path_96" data-name="Path 96" d="M77.18,160.733h.681V117.366H77.18Z" transform="translate(-27.703 -117.366)" fill="#854034"/>
    <path id="Path_97" data-name="Path 97" d="M77.92,160.733H78.6V117.366H77.92Zm.682,0h.683V117.366H78.6Z" transform="translate(-27.761 -117.366)" fill="#843f34"/>
    <path id="Path_98" data-name="Path 98" d="M79.4,160.733h.682V117.366H79.4Z" transform="translate(-27.878 -117.366)" fill="#833f34"/>
    <path id="Path_99" data-name="Path 99" d="M80.142,160.733h.681V117.366h-.681Z" transform="translate(-27.937 -117.366)" fill="#823f34"/>
    <path id="Path_100" data-name="Path 100" d="M80.883,160.733h.683V117.366h-.683Z" transform="translate(-27.995 -117.366)" fill="#823e34"/>
    <path id="Path_101" data-name="Path 101" d="M81.625,160.733h.681V117.366h-.681Z" transform="translate(-28.054 -117.366)" fill="#813e34"/>
    <path id="Path_102" data-name="Path 102" d="M82.365,160.733h.683V117.366h-.683Zm.683,0h.682V117.366h-.682Z" transform="translate(-28.112 -117.366)" fill="#803d34"/>
    <path id="Path_103" data-name="Path 103" d="M83.848,160.733h.681V117.366h-.681Z" transform="translate(-28.23 -117.366)" fill="#7f3d34"/>
    <path id="Path_104" data-name="Path 104" d="M84.588,160.733h.683V117.366h-.683Z" transform="translate(-28.288 -117.366)" fill="#7e3d34"/>
    <path id="Path_105" data-name="Path 105" d="M85.33,160.733h.682V117.366H85.33Z" transform="translate(-28.347 -117.366)" fill="#7e3c34"/>
    <path id="Path_106" data-name="Path 106" d="M86.07,160.733h.683V117.366h-.682Z" transform="translate(-28.405 -117.366)" fill="#7d3c34"/>
    <path id="Path_107" data-name="Path 107" d="M86.81,160.733h.684V117.366h-.683Z" transform="translate(-28.464 -117.366)" fill="#7d3c34"/>
    <path id="Path_108" data-name="Path 108" d="M87.553,160.733h.682V117.366h-.682Z" transform="translate(-28.523 -117.366)" fill="#7c3c34"/>
    <path id="Path_109" data-name="Path 109" d="M88.293,160.733h.682V117.366h-.682Zm.682,0h.683V117.366h-.683Z" transform="translate(-28.581 -117.366)" fill="#7b3b34"/>
    <path id="Path_110" data-name="Path 110" d="M89.776,160.733h.682V117.366h-.682Z" transform="translate(-28.698 -117.366)" fill="#7a3b34"/>
    <path id="Path_111" data-name="Path 111" d="M90.516,160.733H91.2V117.366h-.681Z" transform="translate(-28.757 -117.366)" fill="#793b34"/>
    <path id="Path_112" data-name="Path 112" d="M91.257,160.733h.684V117.366h-.684Z" transform="translate(-28.815 -117.366)" fill="#793a34"/>
    <path id="Path_113" data-name="Path 113" d="M92,160.733h.681V117.366H92Z" transform="translate(-28.874 -117.366)" fill="#783a34"/>
    <path id="Path_114" data-name="Path 114" d="M92.74,160.733h.682V117.366H92.74Zm.682,0H94.1V117.366h-.683Z" transform="translate(-28.933 -117.366)" fill="#773934"/>
    <path id="Path_115" data-name="Path 115" d="M94.222,160.733h1.022V117.366H94.222Zm1.023,0h.683V117.366h-.683Z" transform="translate(-29.05 -117.366)" fill="#763934"/>
    <path id="Path_116" data-name="Path 116" d="M96.074,160.733h.681V117.366h-.681Z" transform="translate(-29.196 -117.366)" fill="#753834"/>
    <path id="Path_117" data-name="Path 117" d="M96.815,160.733H97.5V117.366h-.682Zm.682,0h.683V117.366H97.5Z" transform="translate(-29.255 -117.366)" fill="#743834"/>
    <path id="Path_118" data-name="Path 118" d="M98.3,160.733h.681V117.366H98.3Z" transform="translate(-29.372 -117.366)" fill="#733834"/>
    <path id="Path_119" data-name="Path 119" d="M99.038,160.733h.683V117.366h-.683Zm.683,0h.681V117.366h-.681Z" transform="translate(-29.43 -117.366)" fill="#723734"/>
    <path id="Path_120" data-name="Path 120" d="M100.52,160.733h.682V117.366h-.682Zm.682,0h.684V117.366H101.2Z" transform="translate(-29.548 -117.366)" fill="#713634"/>
    <path id="Path_121" data-name="Path 121" d="M102,160.733h.681V117.366H102Z" transform="translate(-29.665 -117.366)" fill="#703634"/>
    <path id="Path_122" data-name="Path 122" d="M102.743,160.733h.683V117.366h-.683Z" transform="translate(-29.723 -117.366)" fill="#6f3634"/>
    <path id="Path_123" data-name="Path 123" d="M103.485,160.733h.681V117.366h-.681Z" transform="translate(-29.782 -117.366)" fill="#6f3534"/>
    <path id="Path_124" data-name="Path 124" d="M104.225,160.733h.681V117.366h-.681Z" transform="translate(-29.841 -117.366)" fill="#6e3534"/>
    <path id="Path_125" data-name="Path 125" d="M104.966,160.733h.683V117.366h-.683Z" transform="translate(-29.899 -117.366)" fill="#6e3434"/>
    <path id="Path_126" data-name="Path 126" d="M105.708,160.733h.682V117.366h-.682Z" transform="translate(-29.958 -117.366)" fill="#6d3434"/>
    <path id="Path_127" data-name="Path 127" d="M106.448,160.733h.681V117.366h-.681Z" transform="translate(-30.016 -117.366)" fill="#6c3434"/>
    <path id="Path_128" data-name="Path 128" d="M107.19,160.733h.682V117.366h-.682Z" transform="translate(-30.075 -117.366)" fill="#6b3434"/>
    <path id="Path_129" data-name="Path 129" d="M107.93,160.733h.683V117.366h-.681Z" transform="translate(-30.133 -117.366)" fill="#6b3334"/>
    <path id="Path_130" data-name="Path 130" d="M108.67,160.733h.683V117.366h-.682Z" transform="translate(-30.192 -117.366)" fill="#6a3434"/>
    <path id="Path_131" data-name="Path 131" d="M109.412,160.733h.683V117.366h-.683Z" transform="translate(-30.251 -117.366)" fill="#693334"/>
    <path id="Path_132" data-name="Path 132" d="M110.154,160.733h.682V117.366h-.682Z" transform="translate(-30.309 -117.366)" fill="#693334"/>
    <path id="Path_133" data-name="Path 133" d="M110.894,160.733h.682V117.366h-.682Z" transform="translate(-30.368 -117.366)" fill="#683334"/>
    <path id="Path_134" data-name="Path 134" d="M111.635,160.733h.683V117.366h-.683Z" transform="translate(-30.426 -117.366)" fill="#673334"/>
    <path id="Path_135" data-name="Path 135" d="M112.376,160.733h.681V117.366h-.681Zm.682,0h.682V117.366h-.682Z" transform="translate(-30.485 -117.366)" fill="#663234"/>
    <path id="Path_136" data-name="Path 136" d="M113.858,160.733h.683V117.366h-.683Z" transform="translate(-30.602 -117.366)" fill="#653234"/>
    <path id="Path_137" data-name="Path 137" d="M114.6,160.733h.682V117.366H114.6Z" transform="translate(-30.661 -117.366)" fill="#653234"/>
    <path id="Path_138" data-name="Path 138" d="M115.34,160.733h.683V117.366h-.683Z" transform="translate(-30.719 -117.366)" fill="#643134"/>
    <path id="Path_139" data-name="Path 139" d="M116.082,160.733h.682V117.366h-.682Z" transform="translate(-30.778 -117.366)" fill="#633134"/>
    <path id="Path_140" data-name="Path 140" d="M116.822,160.733h.682V117.366h-.682Zm.682,0h1.916V117.366H117.5Z" transform="translate(-30.836 -117.366)" fill="#623133"/>
  </g>
  <path id="Path_142" data-name="Path 142" d="M91.264,108.4a62.313,62.313,0,0,0-24.021-4.6,62.33,62.33,0,0,0-24.024,4.6c-7.856,3.325-13.932,8.259-16.844,14.293-3.393,7.037-2.148,14.8,4.614,21.572,7.748,7.759,20.938,12.533,36.256,12.533S95.75,152.028,103.5,144.27c6.76-6.77,8.006-14.533,4.612-21.571-2.91-6.035-8.988-10.968-16.844-14.293" transform="translate(-1.941 -6.225)" fill="#e5702a"/>
  <g id="Group_27" data-name="Group 27" transform="translate(22.611 97.581)" clip-path="url(#clip-path-2)">
    <path id="Path_143" data-name="Path 143" d="M13.52,105.458l8.441,48.866.424-.075-8.442-48.867" transform="translate(-23.68 -103.901)" fill="#fbd579"/>
    <path id="Path_144" data-name="Path 144" d="M13.98,105.377l8.44,48.866.422-.075L14.4,105.3" transform="translate(-23.716 -103.896)" fill="#fbd478"/>
    <path id="Path_145" data-name="Path 145" d="M14.436,105.3l8.442,48.867.421-.075-8.44-48.866" transform="translate(-23.752 -103.891)" fill="#fbd378"/>
    <path id="Path_146" data-name="Path 146" d="M14.9,105.215l8.441,48.866.424-.075L15.317,105.14" transform="translate(-23.788 -103.886)" fill="#fad277"/>
    <path id="Path_147" data-name="Path 147" d="M15.353,105.135,23.794,154l.42-.075-8.441-48.867" transform="translate(-23.825 -103.881)" fill="#fad276"/>
    <path id="Path_148" data-name="Path 148" d="M15.81,105.055l8.441,48.865.422-.075-8.441-48.867" transform="translate(-23.861 -103.876)" fill="#fad175"/>
    <path id="Path_149" data-name="Path 149" d="M16.268,104.973l8.441,48.866.422-.075L16.69,104.9" transform="translate(-23.897 -103.871)" fill="#fad075"/>
    <path id="Path_150" data-name="Path 150" d="M16.726,104.892l8.441,48.866.422-.075-8.44-48.867" transform="translate(-23.933 -103.867)" fill="#facf74"/>
    <path id="Path_151" data-name="Path 151" d="M17.185,104.811l8.44,48.867.424-.075-8.443-48.867" transform="translate(-23.969 -103.862)" fill="#facf73"/>
    <path id="Path_152" data-name="Path 152" d="M17.642,104.731,26.084,153.6l.42-.075-8.441-48.867" transform="translate(-24.006 -103.857)" fill="#face73"/>
    <path id="Path_153" data-name="Path 153" d="M18.1,104.651l8.441,48.866.422-.077-8.44-48.867" transform="translate(-24.042 -103.852)" fill="#f9cd72"/>
    <path id="Path_154" data-name="Path 154" d="M18.56,104.569,27,153.436l.424-.075L18.98,104.494" transform="translate(-24.078 -103.847)" fill="#f9cc71"/>
    <path id="Path_155" data-name="Path 155" d="M19.016,104.489l8.442,48.866.421-.075-8.441-48.867" transform="translate(-24.114 -103.842)" fill="#f9cc71"/>
    <path id="Path_156" data-name="Path 156" d="M19.474,104.408l8.441,48.866.422-.075L19.9,104.332" transform="translate(-24.15 -103.838)" fill="#f9cb70"/>
    <path id="Path_157" data-name="Path 157" d="M19.932,104.327l8.441,48.866.422-.075-8.441-48.866" transform="translate(-24.187 -103.833)" fill="#f9ca6f"/>
    <path id="Path_158" data-name="Path 158" d="M20.39,104.25l8.441,48.865.212-.038L20.6,104.211" transform="translate(-24.223 -103.83)" fill="#f9c96e"/>
    <path id="Path_159" data-name="Path 159" d="M20.62,104.205l8.44,48.867.422-.075L21.041,104.13" transform="translate(-24.241 -103.825)" fill="#f8c86e"/>
    <path id="Path_160" data-name="Path 160" d="M21.077,104.128l8.441,48.866.212-.038L21.288,104.09" transform="translate(-24.277 -103.823)" fill="#f8c86e"/>
    <path id="Path_161" data-name="Path 161" d="M21.306,104.085l8.441,48.866.422-.075-8.441-48.867" transform="translate(-24.295 -103.818)" fill="#f8c76d"/>
    <path id="Path_162" data-name="Path 162" d="M21.764,104.005l8.441,48.865.422-.075-8.441-48.867" transform="translate(-24.331 -103.813)" fill="#f8c66c"/>
    <path id="Path_163" data-name="Path 163" d="M22.222,103.923l8.441,48.866.422-.075-8.441-48.866" transform="translate(-24.368 -103.809)" fill="#f8c56b"/>
    <path id="Path_164" data-name="Path 164" d="M22.68,103.842l8.441,48.867.422-.075L23.1,103.768" transform="translate(-24.404 -103.804)" fill="#f8c46a"/>
    <path id="Path_165" data-name="Path 165" d="M23.137,103.762l8.442,48.865.421-.075-8.44-48.867" transform="translate(-24.44 -103.799)" fill="#f7c469"/>
    <path id="Path_166" data-name="Path 166" d="M23.6,103.681l8.441,48.867.424-.075-8.441-48.867" transform="translate(-24.476 -103.794)" fill="#f7c369"/>
    <path id="Path_167" data-name="Path 167" d="M24.054,103.6,32.5,152.467l.422-.077-8.441-48.867" transform="translate(-24.512 -103.789)" fill="#f7c268"/>
    <path id="Path_168" data-name="Path 168" d="M24.512,103.519l8.441,48.867.422-.075-8.441-48.867" transform="translate(-24.549 -103.784)" fill="#f7c167"/>
    <path id="Path_169" data-name="Path 169" d="M24.97,103.439,33.411,152.3l.422-.075-8.442-48.866" transform="translate(-24.585 -103.779)" fill="#f7c066"/>
    <path id="Path_170" data-name="Path 170" d="M25.427,103.357l8.442,48.865.633-.113-8.44-48.867" transform="translate(-24.621 -103.772)" fill="#f6c066"/>
    <path id="Path_171" data-name="Path 171" d="M26.115,103.237,34.556,152.1l.424-.075-8.443-48.867" transform="translate(-24.675 -103.767)" fill="#f6bf65"/>
    <path id="Path_172" data-name="Path 172" d="M26.572,103.155l8.442,48.867.42-.075-8.44-48.866" transform="translate(-24.711 -103.763)" fill="#f6be65"/>
    <path id="Path_173" data-name="Path 173" d="M27.03,103.075l8.441,48.866.424-.075L27.452,103" transform="translate(-24.748 -103.758)" fill="#f6bd64"/>
    <path id="Path_174" data-name="Path 174" d="M27.49,103l8.44,48.866.422-.075L27.91,102.919" transform="translate(-24.784 -103.753)" fill="#f6bc63"/>
    <path id="Path_175" data-name="Path 175" d="M27.946,102.918l8.442,48.865.21-.038-8.44-48.866" transform="translate(-24.82 -103.75)" fill="#f5bb62"/>
    <path id="Path_176" data-name="Path 176" d="M28.176,102.877l8.44,48.863.212-.036-8.44-48.867" transform="translate(-24.838 -103.748)" fill="#f5ba62"/>
    <path id="Path_177" data-name="Path 177" d="M28.405,102.833l8.44,48.867.424-.077-8.442-48.866" transform="translate(-24.856 -103.743)" fill="#f5ba62"/>
    <path id="Path_178" data-name="Path 178" d="M28.863,102.752,37.3,151.618l.421-.075-8.442-48.867" transform="translate(-24.893 -103.738)" fill="#f5b961"/>
    <path id="Path_179" data-name="Path 179" d="M29.32,102.671l8.442,48.867.421-.077L29.743,102.6" transform="translate(-24.929 -103.733)" fill="#f5b860"/>
    <path id="Path_180" data-name="Path 180" d="M29.78,102.591l8.44,48.865.422-.075L30.2,102.515" transform="translate(-24.965 -103.729)" fill="#f5b75f"/>
    <path id="Path_181" data-name="Path 181" d="M30.236,102.51l8.441,48.867.422-.077-8.44-48.866" transform="translate(-25.001 -103.724)" fill="#f4b65f"/>
    <path id="Path_182" data-name="Path 182" d="M30.695,102.43,39.135,151.3l.424-.075-8.443-48.868" transform="translate(-25.037 -103.719)" fill="#f4b55e"/>
    <path id="Path_183" data-name="Path 183" d="M31.152,102.348l8.442,48.867.42-.075-8.441-48.867" transform="translate(-25.074 -103.714)" fill="#f4b55d"/>
    <path id="Path_184" data-name="Path 184" d="M31.61,102.268l8.441,48.866.422-.075-8.44-48.867" transform="translate(-25.11 -103.709)" fill="#f4b45d"/>
    <path id="Path_185" data-name="Path 185" d="M32.07,102.187l8.44,48.866.424-.075L32.49,102.112" transform="translate(-25.146 -103.704)" fill="#f4b35c"/>
    <path id="Path_186" data-name="Path 186" d="M32.526,102.107l8.442,48.865.421-.075-8.441-48.866" transform="translate(-25.182 -103.7)" fill="#f3b25b"/>
    <path id="Path_187" data-name="Path 187" d="M32.984,102.025l8.441,48.867.422-.075L33.406,101.95" transform="translate(-25.218 -103.695)" fill="#f3b15b"/>
    <path id="Path_188" data-name="Path 188" d="M33.442,101.945l8.441,48.866.422-.075-8.441-48.867" transform="translate(-25.255 -103.69)" fill="#f3b05a"/>
    <path id="Path_189" data-name="Path 189" d="M33.9,101.863l8.441,48.865.422-.075-8.441-48.867m0,0,8.44,48.867.21-.038-8.44-48.867" transform="translate(-25.291 -103.683)" fill="#f3af59"/>
    <path id="Path_190" data-name="Path 190" d="M34.587,101.743l8.441,48.866.212-.038L34.8,101.706m0,0L43.24,150.57l.21-.038L35.01,101.667" transform="translate(-25.345 -103.678)" fill="#f2ae58"/>
    <path id="Path_191" data-name="Path 191" d="M35.045,101.665l8.441,48.867.212-.038-8.441-48.866" transform="translate(-25.381 -103.675)" fill="#f2ad58"/>
    <path id="Path_192" data-name="Path 192" d="M35.274,101.622l8.441,48.866.422-.075L35.7,101.546" transform="translate(-25.399 -103.67)" fill="#f2ac57"/>
    <path id="Path_193" data-name="Path 193" d="M35.732,101.541l8.441,48.867.422-.075-8.441-48.868" transform="translate(-25.436 -103.666)" fill="#f2ac57"/>
    <path id="Path_194" data-name="Path 194" d="M36.19,101.46l8.441,48.867.422-.077-8.441-48.867" transform="translate(-25.472 -103.661)" fill="#f2ab56"/>
    <path id="Path_195" data-name="Path 195" d="M36.648,101.38l8.441,48.866.424-.075L37.07,101.3" transform="translate(-25.508 -103.656)" fill="#f1aa55"/>
    <path id="Path_196" data-name="Path 196" d="M37.106,101.3l8.442,48.867.421-.075-8.441-48.866" transform="translate(-25.544 -103.651)" fill="#f1a955"/>
    <path id="Path_197" data-name="Path 197" d="M37.564,101.219l8.441,48.865.422-.075-8.441-48.866" transform="translate(-25.58 -103.646)" fill="#f1a855"/>
    <path id="Path_198" data-name="Path 198" d="M38.022,101.138,46.463,150l.422-.075-8.441-48.867" transform="translate(-25.617 -103.641)" fill="#f1a754"/>
    <path id="Path_199" data-name="Path 199" d="M38.48,101.057l8.441,48.866.422-.075L38.9,100.981" transform="translate(-25.653 -103.637)" fill="#f0a753"/>
    <path id="Path_200" data-name="Path 200" d="M38.937,100.975l8.442,48.867.421-.075L39.361,100.9" transform="translate(-25.689 -103.632)" fill="#f0a652"/>
    <path id="Path_201" data-name="Path 201" d="M39.4,100.9l8.44,48.866.424-.075-8.441-48.867" transform="translate(-25.725 -103.627)" fill="#f0a552"/>
    <path id="Path_202" data-name="Path 202" d="M39.854,100.815,48.3,149.678l.422-.075-8.442-48.866" transform="translate(-25.761 -103.622)" fill="#f0a451"/>
    <path id="Path_203" data-name="Path 203" d="M40.31,100.738,48.753,149.6l.21-.038L40.522,100.7" transform="translate(-25.797 -103.62)" fill="#f0a451"/>
    <path id="Path_204" data-name="Path 204" d="M40.54,100.693l8.441,48.866.424-.075-8.442-48.866" transform="translate(-25.816 -103.615)" fill="#f0a351"/>
    <path id="Path_205" data-name="Path 205" d="M41,100.612l8.441,48.867.422-.075L41.42,100.537" transform="translate(-25.852 -103.61)" fill="#efa250"/>
    <path id="Path_206" data-name="Path 206" d="M41.456,100.531,49.9,149.4l.421-.075-8.441-48.866" transform="translate(-25.888 -103.605)" fill="#efa14f"/>
    <path id="Path_207" data-name="Path 207" d="M41.915,100.452l8.441,48.865.424-.075-8.443-48.868" transform="translate(-25.924 -103.6)" fill="#efa14e"/>
    <path id="Path_208" data-name="Path 208" d="M42.372,100.37l8.442,48.867.421-.077-8.441-48.866" transform="translate(-25.96 -103.595)" fill="#efa04e"/>
    <path id="Path_209" data-name="Path 209" d="M42.83,100.29l8.442,48.866.422-.075-8.441-48.867" transform="translate(-25.997 -103.591)" fill="#ef9f4d"/>
    <path id="Path_210" data-name="Path 210" d="M43.29,100.209l8.441,48.866.422-.075L43.71,100.133" transform="translate(-26.033 -103.586)" fill="#ef9e4d"/>
    <path id="Path_211" data-name="Path 211" d="M43.746,100.128l8.442,48.866.421-.075-8.44-48.866" transform="translate(-26.069 -103.581)" fill="#ee9e4c"/>
    <path id="Path_212" data-name="Path 212" d="M44.205,100.048l8.44,48.865.424-.075L44.626,99.972" transform="translate(-26.105 -103.576)" fill="#ee9d4b"/>
    <path id="Path_213" data-name="Path 213" d="M44.662,99.967,53.1,148.833l.42-.075L45.084,99.89" transform="translate(-26.142 -103.571)" fill="#ee9c4b"/>
    <path id="Path_214" data-name="Path 214" d="M45.12,99.88l8.441,48.867.422-.075-8.44-48.867m0,0,8.44,48.866.424-.075L45.964,99.729" transform="translate(-26.178 -103.562)" fill="#ee9b4a"/>
    <path id="Path_215" data-name="Path 215" d="M46.036,99.725l8.442,48.865.421-.075-8.44-48.867" transform="translate(-26.25 -103.557)" fill="#ee9a49"/>
    <path id="Path_216" data-name="Path 216" d="M46.5,99.646l8.44,48.866.212-.038L46.706,99.609" transform="translate(-26.286 -103.554)" fill="#ed9948"/>
    <path id="Path_217" data-name="Path 217" d="M46.724,99.6l8.44,48.866.212-.038L46.933,99.567m0,0,8.442,48.865.209-.038L47.144,99.527" transform="translate(-26.305 -103.549)" fill="#ed9848"/>
    <path id="Path_218" data-name="Path 218" d="M47.18,99.525l8.442,48.867.212-.038L47.392,99.488" transform="translate(-26.341 -103.547)" fill="#ed9847"/>
    <path id="Path_219" data-name="Path 219" d="M47.41,99.482l8.441,48.867.422-.075-8.44-48.866" transform="translate(-26.359 -103.542)" fill="#ed9747"/>
    <path id="Path_220" data-name="Path 220" d="M47.87,99.4l8.44,48.866.424-.075L48.29,99.325" transform="translate(-26.395 -103.537)" fill="#ed9647"/>
    <path id="Path_221" data-name="Path 221" d="M48.326,99.32l8.442,48.867.421-.077L48.748,99.244" transform="translate(-26.431 -103.532)" fill="#ed9546"/>
    <path id="Path_222" data-name="Path 222" d="M48.784,99.24l8.441,48.866.422-.075L49.207,99.163" transform="translate(-26.467 -103.528)" fill="#ec9545"/>
    <path id="Path_223" data-name="Path 223" d="M49.243,99.158l8.44,48.867.422-.075L49.664,99.083" transform="translate(-26.504 -103.523)" fill="#ec9444"/>
    <path id="Path_224" data-name="Path 224" d="M49.7,99.079l8.441,48.865.422-.075L50.122,99" transform="translate(-26.54 -103.518)" fill="#ec9344"/>
    <path id="Path_225" data-name="Path 225" d="M50.158,99,58.6,147.864l.422-.075L50.58,98.922" transform="translate(-26.576 -103.513)" fill="#ec9243"/>
    <path id="Path_226" data-name="Path 226" d="M50.616,98.917l8.441,48.866.422-.075L51.038,98.841" transform="translate(-26.612 -103.508)" fill="#ec9143"/>
    <path id="Path_227" data-name="Path 227" d="M51.074,98.835,59.515,147.7l.422-.075L51.5,98.76" transform="translate(-26.648 -103.503)" fill="#ec9142"/>
    <path id="Path_228" data-name="Path 228" d="M51.532,98.755l8.441,48.866.422-.075L51.954,98.679" transform="translate(-26.685 -103.499)" fill="#ec9042"/>
    <path id="Path_229" data-name="Path 229" d="M51.99,98.675l8.441,48.865.422-.075L52.411,98.6" transform="translate(-26.721 -103.494)" fill="#eb8f41"/>
    <path id="Path_230" data-name="Path 230" d="M52.447,98.6l8.442,48.865.212-.038L52.659,98.558" transform="translate(-26.757 -103.491)" fill="#eb8e41"/>
    <path id="Path_231" data-name="Path 231" d="M52.677,98.556l8.441,48.866.21-.036-8.44-48.867" transform="translate(-26.775 -103.489)" fill="#eb8e41"/>
    <path id="Path_232" data-name="Path 232" d="M52.906,98.513l8.44,48.867.424-.077L53.329,98.437" transform="translate(-26.793 -103.484)" fill="#eb8d40"/>
    <path id="Path_233" data-name="Path 233" d="M53.364,98.432,61.805,147.3l.422-.075-8.44-48.867" transform="translate(-26.829 -103.479)" fill="#eb8c40"/>
    <path id="Path_234" data-name="Path 234" d="M53.823,98.351l8.44,48.867.424-.075L54.244,98.275" transform="translate(-26.866 -103.474)" fill="#eb8b3f"/>
    <path id="Path_235" data-name="Path 235" d="M54.28,98.27l8.442,48.867.421-.077L54.7,98.194" transform="translate(-26.902 -103.469)" fill="#ea8b3e"/>
    <path id="Path_236" data-name="Path 236" d="M54.738,98.188l8.441,48.866.632-.113-8.44-48.867" transform="translate(-26.938 -103.462)" fill="#ea8a3d"/>
    <path id="Path_237" data-name="Path 237" d="M55.425,98.069l8.44,48.866.424-.075L55.844,97.99" transform="translate(-26.992 -103.457)" fill="#ea893d"/>
    <path id="Path_238" data-name="Path 238" d="M55.882,97.982l8.442,48.867.42-.075L56.3,97.908m0,0,8.441,48.865.424-.075L56.727,97.832" transform="translate(-27.028 -103.448)" fill="#ea883c"/>
    <path id="Path_239" data-name="Path 239" d="M56.8,97.827l8.44,48.866.422-.075L57.22,97.751" transform="translate(-27.101 -103.443)" fill="#ea873b"/>
    <path id="Path_240" data-name="Path 240" d="M57.256,97.745,65.7,146.612l.421-.075L57.679,97.67" transform="translate(-27.137 -103.438)" fill="#ea863a"/>
    <path id="Path_241" data-name="Path 241" d="M57.715,97.668l8.44,48.866.212-.038L57.926,97.63" transform="translate(-27.173 -103.436)" fill="#e98639"/>
    <path id="Path_242" data-name="Path 242" d="M57.944,97.628l8.441,48.865.212-.038L58.155,97.589" transform="translate(-27.191 -103.433)" fill="#e98539"/>
    <path id="Path_243" data-name="Path 243" d="M58.173,97.585l8.441,48.866.421-.077L58.594,97.51" transform="translate(-27.21 -103.428)" fill="#e98439"/>
    <path id="Path_244" data-name="Path 244" d="M58.63,97.5l8.442,48.866.421-.075-8.44-48.864m0,0,8.44,48.866.424-.075L59.474,97.348" transform="translate(-27.246 -103.419)" fill="#e98338"/>
    <path id="Path_245" data-name="Path 245" d="M59.546,97.342l8.442,48.867.421-.075L59.969,97.267" transform="translate(-27.318 -103.414)" fill="#e98237"/>
    <path id="Path_246" data-name="Path 246" d="M60,97.261l8.44,48.867.424-.075L60.426,97.186" transform="translate(-27.354 -103.409)" fill="#e88136"/>
    <path id="Path_247" data-name="Path 247" d="M60.462,97.176,68.9,146.042l.42-.077L60.883,97.1m0,0,8.441,48.867.422-.075-8.44-48.867" transform="translate(-27.391 -103.399)" fill="#e88035"/>
    <path id="Path_248" data-name="Path 248" d="M61.38,97.019l8.44,48.866.424-.075L61.8,96.944" transform="translate(-27.463 -103.395)" fill="#e87f35"/>
    <path id="Path_249" data-name="Path 249" d="M61.836,96.939,70.278,145.8l.421-.075L62.258,96.863" transform="translate(-27.499 -103.39)" fill="#e87e34"/>
    <path id="Path_250" data-name="Path 250" d="M62.294,96.861l8.441,48.866.212-.038L62.506,96.822" transform="translate(-27.535 -103.387)" fill="#e87e33"/>
    <path id="Path_251" data-name="Path 251" d="M62.524,96.817l8.44,48.866.422-.075L62.944,96.74" transform="translate(-27.554 -103.382)" fill="#e77d33"/>
    <path id="Path_252" data-name="Path 252" d="M62.98,96.739,71.423,145.6l.212-.038L63.192,96.7" transform="translate(-27.59 -103.38)" fill="#e77c33"/>
    <path id="Path_253" data-name="Path 253" d="M63.21,96.7l8.442,48.867.421-.075L63.634,96.62" transform="translate(-27.608 -103.375)" fill="#e77b32"/>
    <path id="Path_254" data-name="Path 254" d="M63.67,96.615l8.44,48.866.422-.075L64.09,96.539" transform="translate(-27.644 -103.37)" fill="#e77a32"/>
    <path id="Path_255" data-name="Path 255" d="M64.126,96.535,72.567,145.4l.422-.075L64.548,96.459" transform="translate(-27.68 -103.365)" fill="#e77a31"/>
    <path id="Path_256" data-name="Path 256" d="M64.584,96.455l8.441,48.863.422-.075L65.006,96.378" transform="translate(-27.716 -103.361)" fill="#e77930"/>
    <path id="Path_257" data-name="Path 257" d="M65.042,96.373l8.441,48.866.422-.075L65.464,96.3" transform="translate(-27.753 -103.356)" fill="#e67830"/>
    <path id="Path_258" data-name="Path 258" d="M65.5,96.287l8.441,48.867.422-.075L65.921,96.212m0,0,8.442,48.867.424-.075L66.344,96.135" transform="translate(-27.789 -103.346)" fill="#e6772f"/>
    <path id="Path_259" data-name="Path 259" d="M66.416,96.13,74.858,145l.421-.077L66.838,96.055" transform="translate(-27.861 -103.341)" fill="#e6762e"/>
    <path id="Path_260" data-name="Path 260" d="M66.874,96.051l8.441,48.865.422-.075L67.3,95.975" transform="translate(-27.897 -103.336)" fill="#e6752e"/>
    <path id="Path_261" data-name="Path 261" d="M67.332,95.97l8.441,48.865.424-.075L67.754,95.894" transform="translate(-27.934 -103.332)" fill="#e6752d"/>
    <path id="Path_262" data-name="Path 262" d="M67.79,95.889l8.442,48.866.421-.075L68.212,95.813" transform="translate(-27.97 -103.327)" fill="#e5742c"/>
    <path id="Path_263" data-name="Path 263" d="M68.248,95.811l8.441,48.866.212-.038L68.459,95.773" transform="translate(-28.006 -103.324)" fill="#e5732c"/>
    <path id="Path_264" data-name="Path 264" d="M68.477,95.771l8.441,48.865.212-.038L68.688,95.732" transform="translate(-28.024 -103.322)" fill="#e5722c"/>
    <path id="Path_265" data-name="Path 265" d="M68.706,95.727l8.441,48.866.422-.075L69.128,95.651" transform="translate(-28.042 -103.317)" fill="#e5722c"/>
    <path id="Path_266" data-name="Path 266" d="M69.164,95.611l8.441,48.867,3.373-.606L72.536,95" transform="translate(-28.078 -103.278)" fill="#e5712b"/>
  </g>
  <path id="Path_268" data-name="Path 268" d="M50.862,134.248c4.78-3.514,9.666-6.872,14.686-10.021q.221.976.439,1.959-7.695,3.77-15.126,8.061m18.021-12.081c-8.238.117-14.665.5-22.694,1.2,6.933.022,12.319.287,19.358.855q1.658-1.046,3.336-2.059m18.03,12.078c-4.774-3.518-9.653-6.877-14.668-10.035q1.536-.123,3.076-.231c3.981,3.285,7.834,6.721,11.591,10.265m-18.46-12.075c.173,5.856.383,12.07.433,17.738,1.068-5.245,2.177-10.479,3.361-15.7-1.116-.689-2.667-1.369-3.794-2.04m16.126-8.27c-4.251,1.908-8.392,4.053-12.449,6.355q-.246-.85-.5-1.7c4.253-1.728,8.565-3.3,12.949-4.656m-15.7,8.268a245.068,245.068,0,0,1,24.5,1.262c-7.147-1.316-14.086-2.325-21.25-3.177q-1.633.94-3.245,1.915M53.173,113.9c4.249,1.913,8.384,4.061,12.436,6.368q-1.511.155-3.021.329c-3.048-2.358-6.177-4.609-9.414-6.7m15.71,8.266,0-12.13c-1.206,3.372-2.268,6.793-3.269,10.231q1.644.931,3.273,1.9m-18.8-9.6a150.581,150.581,0,0,1,15.469,4.945c1.016-3.112,2.1-6.2,3.326-9.236,1.231,3.03,2.312,6.12,3.325,9.229a148.52,148.52,0,0,1,15.38-4.873A118.293,118.293,0,0,0,77.1,120.256c7.008.912,13.568,2.1,20.473,3.622-6.881-.154-13.359.1-20.226.545,4.844,4.19,8.992,8.246,13.5,12.808-6.174-3.6-11.968-6.62-18.4-9.722-1.247,5.49-2.422,11-3.561,16.51-1.136-5.51-2.179-10.757-3.428-16.244-6.431,3.1-12.283,6.054-18.658,9.506,4.508-4.559,8.775-8.517,13.623-12.705-6.87-.451-13.459-.545-20.491-.649,6.9-1.523,13.719-2.711,20.723-3.623a121.6,121.6,0,0,0-10.568-7.739" transform="translate(-3.156 -6.493)" fill="#fffffe"/>
  <path id="Path_269" data-name="Path 269" d="M69.751,108.479c1.231,3.03,2.312,6.12,3.325,9.229a149.168,149.168,0,0,1,14.848-4.731c.178-.116.353-.232.53-.346A148.649,148.649,0,0,0,73.076,117.5c-1.015-3.111-2.094-6.2-3.325-9.229-1.232,3.032-2.312,6.124-3.327,9.237a150.581,150.581,0,0,0-15.469-4.945c.178.113.352.23.529.345a151.359,151.359,0,0,1,14.94,4.8c1.016-3.112,2.1-6.2,3.326-9.236" transform="translate(-4.028 -6.493)" fill="#b5272d"/>
  <path id="Path_270" data-name="Path 270" d="M60.992,125.616c-4.771,4.133-9.166,8.213-13.606,12.705.16-.094.55-.318.709-.41,4.358-4.39,8.219-7.948,12.9-11.989v-.306" transform="translate(-3.746 -7.533)" fill="#b7482f"/>
  <path id="Path_271" data-name="Path 271" d="M71.082,123.053v0m-.171.105-.166.1q-1.509.914-3,1.854l.043.2c1.093-.69,2.186-1.347,3.291-2.016v-.244l-.171.105m.171-.1" transform="translate(-5.355 -7.379)" fill="#af2127"/>
  <path id="Path_272" data-name="Path 272" d="M66.547,120.628c-.1.009-.2.022-.306.033-.9.094-1.809.19-2.713.3-3.05-2.358-6.178-4.609-9.415-6.7v.244c3.238,2.089,6.366,4.34,9.416,6.7q1.509-.173,3.021-.329c.981.555,1.906,1.081,2.877,1.654h.4c-1.068-.635-2.194-1.288-3.274-1.9M51.8,134.894q7.436-4.278,15.126-8.063v-.286q-7.695,3.77-15.126,8.061v.286" transform="translate(-4.095 -6.852)" fill="#b7482f"/>
  <path id="Path_273" data-name="Path 273" d="M74.731,125.225c-1.17,5.161-2.305,10.514-3.361,15.7v.2c1.068-5.245,2.169-10.444,3.352-15.658,3.419,2.151,8.387,5.462,14.676,10.1v-.306c-4.774-3.518-9.653-6.877-14.668-10.035m5.32.41-.217-.192v.327c4.674,4.042,8.4,7.663,12.76,12.053l.737.428c-4.579-4.636-8.666-8.615-13.28-12.615" transform="translate(-5.642 -7.509)" fill="#932226"/>
  <path id="Path_274" data-name="Path 274" d="M60.43,121.1c-6.929.909-13.676,2.087-20.5,3.593.332,0,.739.022,1.081.019,6.565-1.419,12.987-2.531,19.644-3.4v-.244l-.221.03m5.117,3.892c-6.452-.57-12.875-.893-19.345-.843v.2c6.385-.051,12.718.268,19.082.821l.264-.182" transform="translate(-3.156 -7.26)" fill="#b7482f"/>
  <path id="Path_275" data-name="Path 275" d="M79.587,120.617c7.008.912,13.568,2.1,20.473,3.622-.343-.009-.81-.019-1.154-.022-6.568-1.421-12.657-2.488-19.32-3.356v-.244m-8.218,1.908a245.05,245.05,0,0,1,24.5,1.262v.224q-12.042-1.231-24.124-1.266l-.2-.117-.169-.1.339,0h-.339m3.245-1.915c.1.009.2.025.3.036,3.96-2.235,8-4.324,12.145-6.185v-.2c-4.252,1.908-8.384,4.052-12.442,6.352" transform="translate(-5.642 -6.852)" fill="#932226"/>
  <path id="Path_276" data-name="Path 276" d="M74.849,120.909q-.246-.85-.5-1.7v.2q.225.761.447,1.525l.051-.031" transform="translate(-5.878 -7.149)" fill="#af2127"/>
  <path id="Path_277" data-name="Path 277" d="M68.644,155.2c-.239.182-.571.367-.81.55-.244-.183-.578-.367-.822-.55,0-2.271-.006-4.543,0-6.815.239-.167.585-.334.824-.5.235.167.56.334.8.5q.008,3.408.013,6.815M29.013,138.722c-.129.256-.261.512-.39.771.244.094.715.247.925.337,2.334-1.272,4.642-2.54,6.935-3.765a7.26,7.26,0,0,1,.239-.83c-.236-.063-.47-.128-.707-.188q-3.516,1.777-7,3.676M27.3,124.74q-.32.261-.638.523c.118.157.246.342.354.5q3.274-.477,6.548-.818c.2-.2.448-.442.64-.627l-.383-.4q-3.26.344-6.52.827m8.375-11.283c-.221.1-.442.194-.661.291.02.134.043.38.064.512q2.409.348,4.81.827c.2-.124.482-.291.676-.4l-.083-.426q-2.4-.465-4.807-.806m49.095-6.948c.2,0,.407,0,.611,0l.245.248q-1.261.815-2.482,1.694l-.639.008-.237-.273q1.232-.874,2.5-1.683m-17.509-2.366.46-.144.47.143c0,.667.009,1.337.013,2.006l-.484.166c-.157-.056-.316-.113-.476-.166l.018-2.006M49.681,106.8l.335-.308.617-.009c.85.54,1.683,1.1,2.5,1.683l-.246.275c-.212,0-.519.056-.73.054q-1.22-.877-2.48-1.694m-5.117,44.235c-.33.085-.752.083-1.081.165-.072-.241-.236-.479-.308-.716q2.445-2.979,4.955-5.918c.324-.071.741-.141,1.068-.211.074.2.225.551.313.743q-2.506,2.947-4.947,5.939m61.541-12.318q.2.384.39.771c-.244.094-.714.247-.925.337-2.333-1.272-4.64-2.54-6.935-3.765a7.26,7.26,0,0,0-.239-.83c.236-.063.472-.128.707-.188q3.516,1.777,7,3.676m1.718-13.982.639.523c-.117.157-.249.342-.355.5q-3.268-.477-6.545-.818c-.2-.2-.448-.442-.642-.627l.385-.4q3.26.344,6.518.827m-8.374-11.283.661.291c-.021.134-.046.38-.066.512q-2.408.348-4.81.827c-.205-.124-.483-.291-.677-.4.029-.141.055-.282.085-.426q2.4-.465,4.807-.806m-8.9,37.582c.27.044.75.111,1.08.165.108-.235.212-.472.309-.716q-2.445-2.979-4.953-5.918c-.326-.071-.744-.141-1.068-.211-.076.2-.226.551-.313.743q2.5,2.947,4.946,5.939" transform="translate(-2.107 -6.237)" fill="#fffffe"/>
  <path id="Path_278" data-name="Path 278" d="M28.99,139.729c-.06.12-.158.3-.221.425l-.146-.058c.129-.258.261-.514.39-.771q3.487-1.9,7-3.676c.237.061.472.126.707.188-.049.145-.087.275-.129.408-.189-.056-.444-.1-.631-.149-2.344,1.187-4.647,2.369-6.972,3.632m-1.624-14.078c-.118.1-.439.335-.557.431-.063-.082-.074-.106-.153-.216.212-.175.424-.348.638-.522q3.26-.484,6.52-.827c.126.134.254.268.382.4l-.129.132-.227-.218c-2.173.228-4.3.5-6.474.821M35.051,114.7l-.042-.345c.219-.1.44-.195.661-.291q2.406.338,4.807.806l.083.427c-.037.023-3.284-.649-4.879-.874l-.63.279" transform="translate(-2.107 -6.84)" fill="#b95b30"/>
  <path id="Path_279" data-name="Path 279" d="M90.148,107.022l.037.038.208-.137-.244-.249-.611-.006q-1.271.807-2.5,1.683l.188.216q1.142-.8,2.317-1.553l.611.007" transform="translate(-6.88 -6.397)" fill="#932226"/>
  <path id="Path_280" data-name="Path 280" d="M70.743,104.491l.46-.144.47.143v-.348c-.158-.047-.313-.1-.47-.144-.154.047-.308.094-.46.143v.348" transform="translate(-5.592 -6.237)" fill="#a31f25"/>
  <path id="Path_281" data-name="Path 281" d="M52.626,106.949c.783.5,1.536,1.06,2.3,1.593l.191-.213c-.822-.583-1.655-1.144-2.5-1.683l-.617.009-.341.307.206.134.151-.141.619-.008" transform="translate(-4.083 -6.395)" fill="#b7482f"/>
  <path id="Path_282" data-name="Path 282" d="M50.554,145.247c.088.124.193.41.29.557l.086-.1c-.028-.089-.227-.54-.313-.743-.326.069-.743.139-1.068.211q-2.51,2.936-4.955,5.918l.124.282c1.048-1.274,3.308-4.03,4.955-5.957.258-.061.612-.109.882-.169m56.993-5.518c.062.12.159.3.221.425l.146-.058q-.193-.386-.391-.771-3.485-1.9-7-3.676c-.235.061-.472.126-.707.188.05.145.087.275.129.408.189-.056.445-.1.633-.149,2.343,1.187,4.647,2.369,6.972,3.632m1.621-14.078c.12.1.44.335.559.431.063-.082.074-.106.153-.216-.212-.175-.426-.348-.639-.522q-3.257-.484-6.518-.827l-.385.4.129.132.228-.218c2.175.228,4.3.5,6.474.821M101.487,114.7c.017-.133.024-.195.044-.345l-.661-.291q-2.409.338-4.807.806c-.028.143-.055.285-.085.427.037.023,3.284-.649,4.879-.874l.63.279M87.4,145.247c-.089.124-.193.41-.291.557l-.083-.1c.028-.089.226-.54.313-.743.324.069.742.139,1.068.211q2.51,2.936,4.953,5.918c-.037.092-.071.184-.111.279-1.047-1.273-3.319-4.027-4.967-5.954-.258-.061-.611-.109-.882-.169m-17.5,3.992.157,6.568-.013-6.815c-.236-.167-.56-.334-.8-.5-.239.167-.585.334-.824.5v6.815l.152-6.571c.2-.132.482-.265.672-.4.188.132.465.267.652.4" transform="translate(-3.525 -6.84)" fill="#932226"/>
  <path id="Path_283" data-name="Path 283" d="M37.4,124.1c2.733-12.794,20.138-16.587,31-16.587s28.268,3.8,31,16.589c3.384,15.83-19.761,21.683-31,21.683s-34.385-5.854-31-21.685m-1.177.094c2.9-13.24,20.895-17.174,32.178-17.174s29.273,3.936,32.18,17.178c3.617,16.482-20.482,22.619-32.178,22.619s-35.8-6.138-32.18-22.622" transform="translate(-2.835 -6.418)" fill="#b7482f"/>
  <path id="Path_284" data-name="Path 284" d="M37.516,124.528c2.733-12.794,20.138-16.588,31-16.587s28.269,3.8,31,16.592c3.385,15.83-19.758,21.68-31,21.68s-34.382-5.854-31-21.685m-1.179.1c2.906-13.242,20.148-17.243,32.178-17.243,11.993,0,29.274,4,32.181,17.247,3.619,16.481-20.482,22.617-32.178,22.617s-35.8-6.138-32.18-22.62" transform="translate(-2.844 -6.439)" fill="#fffffe"/>
  <g id="Group_28" data-name="Group 28" transform="translate(105.798 121.924)" clip-path="url(#clip-path-3)">
    <path id="Path_285" data-name="Path 285" d="M114.6,140.24h.682V129.7H114.6Z" transform="translate(-114.857 -129.702)" fill="#552d38"/>
    <path id="Path_286" data-name="Path 286" d="M115.34,140.24H116.7V129.7H115.34Z" transform="translate(-114.915 -129.702)" fill="#542d38"/>
    <path id="Path_287" data-name="Path 287" d="M116.822,140.24h1.022V129.7h-1.022Z" transform="translate(-115.033 -129.702)" fill="#542c38"/>
  </g>
  <path id="Path_289" data-name="Path 289" d="M113.88,140.44c-1.048-.357-3.914-1.6-6.038-2.655l-1.142-.592a7.667,7.667,0,0,1-1.212-.758s-.384-.214-.962-.525a12.844,12.844,0,0,0,1.876-8.319l.672.158,5.277.818,3.719.79,0,0,.031.214a16.175,16.175,0,0,1,.151,2.211,17.358,17.358,0,0,1-2.192,8.329c-.059.109-.12.218-.181.329" transform="translate(-8.263 -7.651)" fill="#90483e"/>
  <path id="Path_290" data-name="Path 290" d="M108.029,138.4c-.414-.207-.8-.406-1.142-.592l1.142.592" transform="translate(-8.45 -8.264)" fill="#6e2531"/>
  <path id="Path_291" data-name="Path 291" d="M100.724,134.285a30.876,30.876,0,0,0-3.129-1.464c-1.6-.562-7.6-2.858-8.766-3.723-1.2-.889-4.881-2.207-7.147-2.969q-.815-.719-1.649-1.444c3-.2,5.934-.354,8.856-.458a21.062,21.062,0,0,0,6.244,1.914,6.957,6.957,0,0,0-1.179-2.035q1.094-.011,2.2-.012,1.464,0,2.951.024h0l.448.008.7.015c-2.479-.548-4.914-1.051-7.34-1.513a3.843,3.843,0,0,1-.531-1.149c-.5-2.375-3.021-5.114-4.706-6.106a5.788,5.788,0,0,0-.626-.337c.872-.607,1.759-1.205,2.671-1.8l.011,0c.178-.116.353-.232.53-.346-1.943.5-3.84,1.032-5.713,1.6a1.932,1.932,0,0,0-.325-.051.042.042,0,0,0-.016,0h-.031c-.318,0-1.683-.207-1.838-.552a1.1,1.1,0,0,0,.274.032c1.566,0,2.213-.437,2.634-1.149a4.892,4.892,0,0,1,.989.137,10.569,10.569,0,0,0,1.368.113c.092,0,.181,0,.267-.006.679-.043.748-.323,1.544-.371.046,0,.092,0,.135,0a1.374,1.374,0,0,1,1.346.852,24.587,24.587,0,0,0,1.393,2.452c.448.713,3.518,2.292,4.863,4.018.973,1.246,2.749,3.243,3.485,4.4a5.932,5.932,0,0,0,2.041,1.794,12.379,12.379,0,0,1-1.959,8.124m-21.4-8.949a17.89,17.89,0,0,0-2.16-.675s-.453-.134-1.11-.279c.651-.047,1.3-.1,1.952-.141q.663.544,1.317,1.1m-5.043-1.243c-.125-.012-.249-.023-.374-.031l.037-.15c.113.06.226.122.337.182m21.782-.4q-1.3-.134-2.6-.251l-.173-.246q1.379.24,2.768.5M85.845,114.8c-.1-.028-.221-.056-.345-.089.588-.188,1.175-.376,1.765-.557,0,0,0,0-.007,0q-.709.317-1.412.644" transform="translate(-5.843 -6.755)" fill="#90483e"/>
  <g id="Group_29" data-name="Group 29" transform="translate(65.33 116.04)" clip-path="url(#clip-path-4)">
    <path id="Path_292" data-name="Path 292" d="M70.535,123.511l.366,2.12.212-.038-.367-2.12" transform="translate(-70.906 -123.445)" fill="#914c40"/>
    <path id="Path_293" data-name="Path 293" d="M70.764,123.463l.366,2.119.845-.15-.366-2.121" transform="translate(-70.924 -123.435)" fill="#914c40"/>
    <path id="Path_294" data-name="Path 294" d="M71.68,123.3l.367,2.121.844-.15-.367-2.121" transform="translate(-70.997 -123.425)" fill="#914b3f"/>
    <path id="Path_295" data-name="Path 295" d="M72.6,123.145l.367,2.12.421-.077-.365-2.119" transform="translate(-71.069 -123.421)" fill="#914a3f"/>
    <path id="Path_296" data-name="Path 296" d="M73.054,123.065l.366,2.118.424-.075-.367-2.12" transform="translate(-71.105 -123.416)" fill="#914a3f"/>
    <path id="Path_297" data-name="Path 297" d="M73.512,122.983l.367,2.12.421-.075-.366-2.121" transform="translate(-71.141 -123.411)" fill="#91493e"/>
  </g>
  <path id="Path_299" data-name="Path 299" d="M81.329,126.17h0q-.707-.627-1.427-1.252l-.217-.192v.327c.356.31.709.616,1.054.921-.763-.254-1.258-.408-1.258-.408s-.2-.079-.507-.192q-.653-.55-1.317-1.1c-.651.044-1.3.094-1.952.141a16.066,16.066,0,0,0-1.774-.288c-.111-.061-.224-.122-.338-.182-.707-.376-1.474-.747-2.159-1.116.043-.055.088-.107.133-.16l.022.013q7.138.028,14.238.459a9.035,9.035,0,0,1,1.593.579l.493.244s.233.117.626.3c-2.921.1-5.851.26-8.855.457q.836.725,1.648,1.444m-11.893-1.294a1.655,1.655,0,0,0,1.006-.665c.129-.2.254-.391.378-.569l.026.877c-.5.132-1.026.267-1.409.357m30.47-.7c-2.477-.548-4.914-1.051-7.34-1.513,2.426.462,4.863.965,7.34,1.513m0,0-.7-.015c.244,0,.5.009.7.015m-1.156-.023q-1.486-.023-2.951-.023-1.105,0-2.2.013c-.1-.141-.209-.285-.313-.43q1.212.113,2.422.235v-.223q-1.3-.134-2.594-.251c.866.078,1.731.16,2.6.25q-1.39-.257-2.768-.5c-.071-.1-.138-.2-.2-.3,1.98.378,3.972.785,6.014,1.226M86.7,115.077c-.381-.166-.444-.075-.9-.16l-.018,0c.372-.174.746-.343,1.121-.511v-.2l.009,0q-.884.274-1.765.558c-.178-.044-.368-.094-.551-.137,1.569-.468,3.157-.912,4.78-1.34-.914.592-1.8,1.19-2.673,1.8" transform="translate(-5.489 -6.793)" fill="#937d86"/>
  <path id="Path_300" data-name="Path 300" d="M84.779,123.321q-5.263-.289-10.539-.354a16.7,16.7,0,0,0,.152-1.673c.543.068.555.246,1.462.557a30.427,30.427,0,0,0,7.5,1.328,13.517,13.517,0,0,1,1.422.141" transform="translate(-5.869 -7.274)" fill="#90483e"/>
  <g id="Group_30" data-name="Group 30" transform="translate(66.256 114.019)" clip-path="url(#clip-path-5)">
    <path id="Path_301" data-name="Path 301" d="M71.343,121.388l.35,2.019.842-.152-.348-2.018" transform="translate(-71.896 -121.29)" fill="#914b3f"/>
    <path id="Path_302" data-name="Path 302" d="M72.26,121.232l.347,2.018.422-.075-.348-2.019" transform="translate(-71.968 -121.285)" fill="#914a3f"/>
    <path id="Path_303" data-name="Path 303" d="M72.717,121.151l.348,2.019.424-.075-.35-2.021" transform="translate(-72.004 -121.28)" fill="#914a3f"/>
    <path id="Path_304" data-name="Path 304" d="M73.175,121.063l.35,2.019,1.064-.191-.35-2.021" transform="translate(-72.04 -121.268)" fill="#91493e"/>
  </g>
  <path id="Path_306" data-name="Path 306" d="M72.7,122.208l.381-.376a2.1,2.1,0,0,0,.437-.592c.145.007.3.016.46.024.112.006.208.013.291.024q-.787.455-1.57.921" transform="translate(-5.747 -7.271)" fill="#937d86"/>
  <path id="Path_307" data-name="Path 307" d="M85.863,114.6c-.142-.035-.276-.066-.393-.09,1.873-.564,3.769-1.094,5.713-1.6-.178.115-.353.231-.53.348h-.009c-1.623.428-3.21.872-4.78,1.34" transform="translate(-6.756 -6.771)" fill="#7b2b38"/>
  <path id="Path_308" data-name="Path 308" d="M81.508,126.227l-.589-.195q-.521-.457-1.055-.921v-.326l.217.192q.721.626,1.427,1.25m18.581-1.987c-.207-.006-.46-.009-.7-.015l-.449-.007h0c-2.041-.442-4.034-.849-6.014-1.228l-.171-.263c2.428.461,4.863.964,7.342,1.513m-4.2-.228q-1.213-.123-2.422-.235c-.058-.081-.117-.16-.173-.24.866.078,1.731.16,2.6.25v.224m-9.886-.808q-7.1-.434-14.238-.458l-.021-.012c.059-.07.12-.139.181-.207q6.332.028,12.654.373a12.842,12.842,0,0,1,1.426.305m-.043-8.23c-.066-.014-.169-.04-.291-.07.468-.218.939-.432,1.411-.645v.2c-.375.169-.748.338-1.121.51" transform="translate(-5.672 -6.852)" fill="#6e2531"/>
  <path id="Path_309" data-name="Path 309" d="M103.3,135.289l-.271-.141a12.379,12.379,0,0,0,1.959-8.124c.018.012.041.023.061.035a12.42,12.42,0,0,1-1.75,8.231" transform="translate(-8.144 -7.617)" fill="#7d373b"/>
  <path id="Path_310" data-name="Path 310" d="M104.43,135.687c-.322-.173-.7-.376-1.111-.588a12.419,12.419,0,0,0,1.75-8.23,4.664,4.664,0,0,0,1.211.493l.025.007a12.839,12.839,0,0,1-1.876,8.319m9.908-11.788-.014-.028.014.028m-.024-.049,0,0s0,0,0,0" transform="translate(-8.167 -7.427)" fill="#937d86"/>
  <g id="Group_31" data-name="Group 31" transform="translate(105.935 116.007)" clip-path="url(#clip-path-6)">
    <path id="Path_311" data-name="Path 311" d="M114.97,124.182h.341v-.777h-.341Z" transform="translate(-115.023 -123.407)" fill="#552d38"/>
    <path id="Path_312" data-name="Path 312" d="M115.34,124.182h.341v-.777h-.341Z" transform="translate(-115.053 -123.407)" fill="#542d38"/>
  </g>
  <path id="Path_314" data-name="Path 314" d="M115.3,125.291c-1.457-.073-4.3-.16-5.64-.884.006-.483-1.812-.6-1.812-.6s-.65-.395-.47-.7l1.437-.87a5.362,5.362,0,0,1,1.063-.133h.035c.249-.006.483-.008.7-.008a12.609,12.609,0,0,1,3.282.287h0c.181.313.354.627.518.945.072.138.141.275.208.414a.008.008,0,0,0,0,.006l.009.022.015.028c.046.094.09.188.134.284l.007.015.006.011c.182.393.35.79.5,1.186" transform="translate(-8.486 -7.322)" fill="#90483e"/>
  <g id="Group_32" data-name="Group 32" transform="translate(101.491 137.024)" clip-path="url(#clip-path-7)">
    <path id="Path_315" data-name="Path 315" d="M110.154,146.851h.682v-1.086h-.682Z" transform="translate(-110.199 -145.765)" fill="#572e39"/>
    <path id="Path_316" data-name="Path 316" d="M110.894,146.851h.682v-1.086h-.682Z" transform="translate(-110.258 -145.765)" fill="#572d38"/>
  </g>
  <path id="Path_318" data-name="Path 318" d="M108.461,147.127a19.977,19.977,0,0,0-2.8-.623s-2.649-.807-3.441-.912a23.965,23.965,0,0,1-5.642-1.934s-.062-.1-.153-.271a27.193,27.193,0,0,0,3.052-2.019,1.044,1.044,0,0,1,.65.663c3.454,1.837,8,1.891,11.2,1.961q-.58.745-1.243,1.478l-.018.021-.006.007q-.456.5-.947.994l-.064.066c-.193.194-.394.384-.594.572M95.8,141.993c-.2-.609-.238-1.152.276-1.152a6.844,6.844,0,0,1,1.356.113q-.787.543-1.632,1.039" transform="translate(-7.562 -8.446)" fill="#90483e"/>
  <path id="Path_319" data-name="Path 319" d="M95.951,142.379c-.052-.126-.1-.254-.143-.381q.843-.5,1.633-1.039a2.813,2.813,0,0,1,.484.135c-.628.451-1.289.881-1.974,1.285" transform="translate(-7.574 -8.453)" fill="#7d373b"/>
  <path id="Path_320" data-name="Path 320" d="M96.452,143.4a10.42,10.42,0,0,1-.488-1.015c.683-.4,1.345-.833,1.973-1.284a.833.833,0,0,1,.345.207,2.727,2.727,0,0,1,.5-.045,2.045,2.045,0,0,1,.721.118,27.1,27.1,0,0,1-3.052,2.019" transform="translate(-7.586 -8.462)" fill="#937d86"/>
  <path id="Path_321" data-name="Path 321" d="M85.014,83.661l-1.083-1.043c-.077-.348.3-.812.393-1.391-.111-.04-.221-.094-.325-.141a6.655,6.655,0,0,1,0-3.779,2.45,2.45,0,0,0,.346-1.645c-.879-3.072-2.617-5.749-3.845-8.667a5.726,5.726,0,0,1-.326-2.171A19.324,19.324,0,0,1,77.6,59.236a30.363,30.363,0,0,0-1.837,6.894c0,3.212,3.19,4.77,2.084,10.11-.212,1.031-.592,2.457-.971,3.927.661,3.723.661,6.423,1.637,10.735a12.043,12.043,0,0,1,3.113,5.391c.375,1.388,1.522,4.653,2.989,5.142.909.3-3.083,1.049-4.214-.4-1.089-1.391-2.969-2.5-3.859-3.986-.711-1.18-1.814-3.694-2.511-4.888l-.854,4.578c1.16,4.885.47,5.964-.565,9.93-.447,1.711-3.835-6.3-3.838-6.924a12.424,12.424,0,0,0-.508-3.92,10.261,10.261,0,0,1-.538-4.939c.163-2.547.143-7.348.251-8.611-.856-2.145-3.045-6.019-3.265-8.2-.341-3.4.221-6.834-.241-10.218-.571,1.7-1.177,3.847-2.468,5.145a82.333,82.333,0,0,0-5.449,6.239c-.63.879-.072,1.307-1.048,2.713-.961,1.382-.446.759-.645,2.079a.986.986,0,0,1-.221.487,1.622,1.622,0,0,1-1.8.5c-1.425-.729-1.525-1.81-1.624-3.2-.187-2.651,1.733-2.777,2.821-4.381,2.135-3.149,3.217-8.432,5.5-10.81.145-.47.68-2.165,1.7-4.688.03-3.135.79-5.925,3.949-7.21,1.293-.528,2.988-.662,3.052-2.487a2.3,2.3,0,0,0-.173-.978c-.521-.429-.887-.44-1.137-.744-.511-.67-.935-4.98-.879-5.255.743-3.657,2.454-4.877,4.627-4.766,2.566.13,4.6,1.387,4.491,4.907-.088,2.832-2.956,6.467,1.333,7.846,1.637.526,1.949.162,3.357,1.607,1.578,1.617,1.962,4.493,2.226,7.158L83.7,61.84c2.95,5.07,1.881,6.672,2.967,11.835a22.877,22.877,0,0,1,.868,5.435c.049,1.394-1.031,4.5-2.523,4.552" transform="translate(-4.048 -2.189)" fill="#f2ac59"/>
  <g id="Group_33" data-name="Group 33" transform="translate(47.994 35.458)" clip-path="url(#clip-path-8)">
    <path id="Path_322" data-name="Path 322" d="M66.049,18.108,7.116,78.263,23.384,94.868,82.315,34.716" transform="translate(-48.556 -36.544)" fill="#27327c"/>
    <path id="Path_323" data-name="Path 323" d="M83.712,35.774,24.78,95.927l.976,1L84.69,36.77" transform="translate(-49.952 -37.603)" fill="#27327b"/>
    <path id="Path_324" data-name="Path 324" d="M84.774,36.834,25.842,96.987l.488.5L85.262,37.332" transform="translate(-50.036 -37.666)" fill="#27317b"/>
    <path id="Path_325" data-name="Path 325" d="M85.3,37.364,26.37,97.519l.488.5L85.792,37.862" transform="translate(-50.078 -37.698)" fill="#27317b"/>
    <path id="Path_326" data-name="Path 326" d="M85.834,37.894,26.9,98.049l.49.5L86.323,38.394" transform="translate(-50.12 -37.73)" fill="#27317a"/>
    <path id="Path_327" data-name="Path 327" d="M86.365,38.425,27.432,98.578l.976,1L87.342,39.423" transform="translate(-50.162 -37.762)" fill="#27317a"/>
    <path id="Path_328" data-name="Path 328" d="M87.426,39.486,28.492,99.639l.488.5L87.913,39.984m0,0L28.982,100.137l.488.5L88.4,40.482" transform="translate(-50.246 -37.826)" fill="#273179"/>
    <path id="Path_329" data-name="Path 329" d="M88.486,40.546,29.553,100.7l.488.5L88.974,41.044" transform="translate(-50.33 -37.889)" fill="#273079"/>
    <path id="Path_330" data-name="Path 330" d="M89.016,41.076,30.083,101.231l.488.5L89.5,41.576" transform="translate(-50.372 -37.921)" fill="#273078"/>
    <path id="Path_331" data-name="Path 331" d="M89.547,41.607,30.615,101.762l.976,1L90.523,42.6" transform="translate(-50.414 -37.953)" fill="#273078"/>
    <path id="Path_332" data-name="Path 332" d="M90.608,42.668,31.676,102.823l.486.5L91.1,43.166" transform="translate(-50.498 -38.016)" fill="#273077"/>
    <path id="Path_333" data-name="Path 333" d="M91.138,43.2,32.2,103.351l.612.625L91.749,43.82" transform="translate(-50.539 -38.048)" fill="#273077"/>
    <path id="Path_334" data-name="Path 334" d="M91.8,43.86,32.868,104.015l.488.5L92.289,44.361" transform="translate(-50.592 -38.088)" fill="#273076"/>
    <path id="Path_335" data-name="Path 335" d="M92.331,44.392,33.4,104.545l.976,1L93.309,45.39" transform="translate(-50.634 -38.12)" fill="#262f76"/>
    <path id="Path_336" data-name="Path 336" d="M93.392,45.453,34.46,105.606l.488.5L93.88,45.951" transform="translate(-50.718 -38.183)" fill="#262f76"/>
    <path id="Path_337" data-name="Path 337" d="M93.922,45.982,34.99,106.135l.488.5L94.41,46.481" transform="translate(-50.76 -38.215)" fill="#262f75"/>
    <path id="Path_338" data-name="Path 338" d="M94.452,46.513,35.52,106.668l.488.5L94.941,47.011" transform="translate(-50.801 -38.247)" fill="#262f75"/>
    <path id="Path_339" data-name="Path 339" d="M94.983,47.043,36.05,107.2l.976,1L95.96,48.041" transform="translate(-50.843 -38.279)" fill="#262f74"/>
    <path id="Path_340" data-name="Path 340" d="M96.044,48.1,37.111,108.257l.488.5L96.532,48.6" transform="translate(-50.927 -38.342)" fill="#262f74"/>
    <path id="Path_341" data-name="Path 341" d="M96.574,48.635,37.642,108.788l.488.5L97.063,49.133" transform="translate(-50.969 -38.374)" fill="#262f74"/>
    <path id="Path_342" data-name="Path 342" d="M97.105,49.165,38.171,109.318l.49.5L97.592,49.663" transform="translate(-51.011 -38.406)" fill="#262e73"/>
    <path id="Path_343" data-name="Path 343" d="M97.635,49.7,38.7,109.85l.976,1L98.611,50.693" transform="translate(-51.053 -38.438)" fill="#262e73"/>
    <path id="Path_344" data-name="Path 344" d="M98.7,50.756,39.764,110.911l.488.5L99.184,51.254" transform="translate(-51.137 -38.501)" fill="#262e72"/>
    <path id="Path_345" data-name="Path 345" d="M99.226,51.286,40.293,111.439l.488.5L99.714,51.783" transform="translate(-51.179 -38.533)" fill="#262e72"/>
    <path id="Path_346" data-name="Path 346" d="M99.756,51.816,40.823,111.972l.611.62L100.365,52.44m0,0L41.435,112.593l.488.5,58.933-60.153" transform="translate(-51.221 -38.565)" fill="#262e71"/>
    <path id="Path_347" data-name="Path 347" d="M100.951,53.01,42.015,113.163l.976,1,58.935-60.153" transform="translate(-51.315 -38.637)" fill="#262d71"/>
    <path id="Path_348" data-name="Path 348" d="M102.011,54.07,43.077,114.225l.488.5L102.5,54.57" transform="translate(-51.399 -38.7)" fill="#262d70"/>
    <path id="Path_349" data-name="Path 349" d="M102.541,54.6,43.608,114.755l.488.5L103.029,55.1" transform="translate(-51.441 -38.732)" fill="#262d70"/>
    <path id="Path_350" data-name="Path 350" d="M103.071,55.13,44.138,115.285l.488.5,58.933-60.155" transform="translate(-51.483 -38.764)" fill="#262d6f"/>
    <path id="Path_351" data-name="Path 351" d="M103.6,55.66,44.67,115.816l.976,1,58.932-60.155m0,0L45.646,116.814l.488.5,58.933-60.155" transform="translate(-51.525 -38.795)" fill="#262d6f"/>
    <path id="Path_352" data-name="Path 352" d="M105.193,57.253,46.26,117.408l.488.5,58.933-60.155" transform="translate(-51.65 -38.891)" fill="#262c6e"/>
    <path id="Path_353" data-name="Path 353" d="M105.723,57.783,46.789,117.936l.488.5L106.21,58.283" transform="translate(-51.692 -38.923)" fill="#252c6e"/>
    <path id="Path_354" data-name="Path 354" d="M106.254,58.314,47.322,118.467l.976,1L107.23,59.312" transform="translate(-51.734 -38.955)" fill="#252c6d"/>
    <path id="Path_355" data-name="Path 355" d="M107.314,59.375,48.382,119.528l.488.5L107.8,59.873" transform="translate(-51.818 -39.018)" fill="#252c6d"/>
    <path id="Path_356" data-name="Path 356" d="M107.844,59.9,48.911,120.058l.49.5L108.332,60.4" transform="translate(-51.86 -39.05)" fill="#242b6c"/>
    <path id="Path_357" data-name="Path 357" d="M108.375,60.435,49.443,120.59l.61.622,58.933-60.155" transform="translate(-51.902 -39.082)" fill="#242b6c"/>
    <path id="Path_358" data-name="Path 358" d="M109.038,61.1,50.1,121.251l.976,1L110.015,62.1m0,0L51.081,122.249l.488.5L110.5,62.595" transform="translate(-51.954 -39.122)" fill="#242b6b"/>
    <path id="Path_359" data-name="Path 359" d="M110.629,62.69,51.695,122.843l.488.5,58.933-60.153" transform="translate(-52.08 -39.217)" fill="#232a6b"/>
    <path id="Path_360" data-name="Path 360" d="M111.159,63.22,52.227,123.373l.488.5,58.933-60.153" transform="translate(-52.122 -39.249)" fill="#232a6a"/>
    <path id="Path_361" data-name="Path 361" d="M111.689,63.75,52.756,123.9l.488.5L112.177,64.25" transform="translate(-52.164 -39.281)" fill="#232a6a"/>
    <path id="Path_362" data-name="Path 362" d="M112.22,64.28,53.288,124.435l.976,1L113.2,65.278m0,0L54.264,125.432l.488.5,58.933-60.155" transform="translate(-52.206 -39.312)" fill="#222a69"/>
    <path id="Path_363" data-name="Path 363" d="M113.811,65.87,54.878,126.025l.488.5L114.3,66.368m0,0L55.368,126.525l.488.5,58.932-60.155" transform="translate(-52.332 -39.408)" fill="#222968"/>
    <path id="Path_364" data-name="Path 364" d="M114.872,66.932,55.94,127.085l.976,1L115.85,67.93" transform="translate(-52.416 -39.471)" fill="#212968"/>
    <path id="Path_365" data-name="Path 365" d="M115.933,67.993,57,128.146l.488.5L116.42,68.491" transform="translate(-52.499 -39.535)" fill="#212967"/>
    <path id="Path_366" data-name="Path 366" d="M116.462,68.523,57.53,128.678l12.5,12.763,58.933-60.153" transform="translate(-52.541 -39.567)" fill="#212867"/>
  </g>
</svg>
