<svg xmlns="http://www.w3.org/2000/svg" width="417.192" height="73.713" viewBox="0 0 417.192 73.713">
  <g id="YachtCloud" transform="translate(1.017 1.036)">
    <g id="Layer_1" data-name="Layer 1" transform="translate(0)">
      <path id="Path_368" data-name="Path 368" d="M102.525,36.9a20.366,20.366,0,0,0-3.288.268,11.97,11.97,0,0,0,.526-3.579,12.437,12.437,0,0,0-7.592-11.524,12,12,0,0,0-13.317,2.843A31.093,31.093,0,0,0,43.962,5.593,31.7,31.7,0,0,0,18.713,36.859v.895a19.935,19.935,0,0,0-13.5,22A19.636,19.636,0,0,0,24.5,76.68h78.07a19.893,19.893,0,0,0-.044-39.777Z" transform="translate(-4.987 -5.003)" fill="none" stroke="#2e2a25" stroke-miterlimit="10" stroke-width="2"/>
      <path id="Path_369" data-name="Path 369" d="M327.394,91.194,335.241,75.4h8.592L331.383,98.8v14.9h-7.89V99.069L311,75.4h8.636Z" transform="translate(-176.859 -43.902)" fill="#2e2a25"/>
      <path id="Path_370" data-name="Path 370" d="M410.908,124.021l-1.534-3.982h-.219a11.7,11.7,0,0,1-4.077,3.535,12.7,12.7,0,0,1-5.479.984,8.815,8.815,0,0,1-6.531-2.416c-1.622-1.611-2.367-3.893-2.367-6.89,0-3.132,1.052-5.414,3.2-6.89s5.348-2.282,9.644-2.461l5-.179v-1.3c0-2.953-1.491-4.474-4.471-4.474a20.636,20.636,0,0,0-8.109,2.1l-2.586-5.414a23.154,23.154,0,0,1,11-2.64c3.858,0,6.794.85,8.855,2.55s3.068,4.3,3.068,7.83v19.553h-5.392Zm-2.323-13.6-3.025.089a9.766,9.766,0,0,0-5.085,1.253,4,4,0,0,0-1.666,3.535c0,2.237,1.271,3.4,3.814,3.4a5.865,5.865,0,0,0,4.34-1.611,5.625,5.625,0,0,0,1.622-4.251Z" transform="translate(-221.623 -54.178)" fill="#2e2a25"/>
      <path id="Path_371" data-name="Path 371" d="M477.113,124.777q-13.413,0-13.414-15.034c0-4.967,1.227-8.77,3.638-11.41s5.918-3.937,10.433-3.937a19.392,19.392,0,0,1,8.942,2.013l-2.323,6.175a36.551,36.551,0,0,0-3.463-1.253,11.106,11.106,0,0,0-3.2-.492c-4.077,0-6.093,2.953-6.093,8.859,0,5.727,2.016,8.591,6.093,8.591a14.3,14.3,0,0,0,4.208-.626,15.531,15.531,0,0,0,3.857-1.924v6.846a12.737,12.737,0,0,1-3.857,1.7A20.052,20.052,0,0,1,477.113,124.777Z" transform="translate(-262.623 -54.397)" fill="#2e2a25"/>
      <path id="Path_372" data-name="Path 372" d="M555.976,110.651H548.13V93.514c0-4.251-1.534-6.354-4.6-6.354a5.177,5.177,0,0,0-4.734,2.282q-1.446,2.282-1.446,7.383v13.781H529.5V69.8h7.847v8.322c0,.626-.044,2.148-.175,4.564L537,85.057h.394c1.753-2.864,4.515-4.3,8.329-4.3,3.375,0,5.918.94,7.671,2.774s2.63,4.519,2.63,7.964v19.15Z" transform="translate(-299.58 -40.808)" fill="#2e2a25"/>
      <path id="Path_373" data-name="Path 373" d="M616.691,111.31a16.569,16.569,0,0,0,4.953-.94v6a17.241,17.241,0,0,1-7.189,1.342c-3.112,0-5.435-.805-6.838-2.416s-2.148-4.027-2.148-7.293V93.86H601.7v-3.4l4.3-2.685,2.279-6.175h5v6.219h8.022v6h-8.022v14.139a3.18,3.18,0,0,0,.92,2.506A3.462,3.462,0,0,0,616.691,111.31Z" transform="translate(-340.131 -47.328)" fill="#2e2a25"/>
      <path id="Path_374" data-name="Path 374" d="M676.56,76.555c-4.69,0-8.416,1.521-11.134,4.609s-4.077,7.293-4.077,12.618q0,8.188,3.814,12.752c2.542,3.043,6.181,4.519,10.959,4.519A28.106,28.106,0,0,0,684.8,109.8v2.371a27.685,27.685,0,0,1-9.293,1.342c-5.26,0-9.425-1.745-12.449-5.235S658.5,99.956,658.5,93.692A22.587,22.587,0,0,1,660.692,83.4a15.938,15.938,0,0,1,6.224-6.89,18.22,18.22,0,0,1,9.468-2.416,22.345,22.345,0,0,1,9.819,2.1l-1.052,2.416A19.294,19.294,0,0,0,676.56,76.555Z" transform="translate(-372.033 -43.178)" fill="#2e2a25"/>
      <path id="Path_375" data-name="Path 375" d="M738.743,110.706H736.2V69.9h2.542Z" transform="translate(-415.673 -40.863)" fill="#2e2a25"/>
      <path id="Path_376" data-name="Path 376" d="M784.26,110.965c0,4.653-1.1,8.278-3.331,10.873a11.452,11.452,0,0,1-9.161,3.937,11.208,11.208,0,0,1-10.784-6.98,19.005,19.005,0,0,1-1.49-7.83c0-4.653,1.1-8.278,3.331-10.873A11.36,11.36,0,0,1,771.9,96.2a11.108,11.108,0,0,1,9.03,3.937C783.121,102.777,784.26,106.357,784.26,110.965Zm-22.049,0c0,3.937.833,6.98,2.543,9.172a9.365,9.365,0,0,0,14.29,0c1.666-2.192,2.542-5.235,2.542-9.172s-.833-6.98-2.542-9.128a8.662,8.662,0,0,0-7.189-3.266,8.489,8.489,0,0,0-7.145,3.222C763.044,103.941,762.211,106.983,762.211,110.965Z" transform="translate(-428.753 -55.396)" fill="#2e2a25"/>
      <path id="Path_377" data-name="Path 377" d="M835.386,97.4v18.479c0,2.864.57,4.967,1.753,6.264s3.025,1.969,5.479,1.969c3.331,0,5.786-.85,7.32-2.55s2.367-4.519,2.367-8.367V97.445h2.5v28.5h-2.148l-.482-3.937H852c-1.8,2.953-5.041,4.474-9.688,4.474-6.356,0-9.512-3.49-9.512-10.425V97.445h2.586Z" transform="translate(-469.929 -56.059)" fill="#2e2a25"/>
      <path id="Path_378" data-name="Path 378" d="M912.423,81.667a11.428,11.428,0,0,1,5.26,1.119,10.46,10.46,0,0,1,3.945,3.848h.176c-.088-2.192-.176-4.34-.176-6.488V69.9h2.5v40.806h-1.666l-.658-4.34h-.219a10.233,10.233,0,0,1-9.161,4.877c-3.858,0-6.794-1.208-8.855-3.669s-3.068-6-3.068-10.694c0-4.922,1.008-8.68,3.024-11.32C905.629,82.965,908.566,81.667,912.423,81.667Zm0,2.327a7.814,7.814,0,0,0-6.882,3.266c-1.534,2.192-2.28,5.369-2.28,9.53,0,8.054,3.068,12.125,9.205,12.125,3.156,0,5.479-.94,6.926-2.819s2.192-4.966,2.192-9.262v-.447c0-4.385-.745-7.562-2.192-9.486S915.667,83.994,912.423,83.994Z" transform="translate(-507.953 -40.863)" fill="#2e2a25"/>
    </g>
  </g>
</svg>
